<svg width="320" height="421" viewBox="0 0 320 421" fill="none" xmlns="http://www.w3.org/2000/svg">
<path opacity="0.15" d="M-19 222.357L-19 420.357L76.3982 420.357L76.3982 222.357L-19 222.357ZM10.0088 402.64C5.98131 402.64 2.11874 401.04 -0.729163 398.192C-3.57706 395.344 -5.17699 391.482 -5.17699 387.454C-5.17699 383.427 -3.57706 379.564 -0.729164 376.716C2.11873 373.868 5.98131 372.268 10.0088 372.268C14.0364 372.268 17.899 373.868 20.7469 376.716C23.5948 379.564 25.1947 383.427 25.1947 387.454C25.1947 391.482 23.5948 395.344 20.7469 398.192C17.899 401.04 14.0364 402.64 10.0088 402.64ZM10.0088 357.861C5.98131 357.861 2.11873 356.261 -0.729165 353.414C-3.57706 350.566 -5.17699 346.703 -5.17699 342.676C-5.177 338.648 -3.57706 334.785 -0.729166 331.938C2.11873 329.09 5.98131 327.49 10.0088 327.49C14.0364 327.49 17.899 329.09 20.7469 331.938C23.5948 334.785 25.1947 338.648 25.1947 342.676C25.1947 346.703 23.5948 350.566 20.7469 353.414C17.899 356.261 14.0364 357.861 10.0088 357.861ZM10.0088 313.083C5.98131 313.083 2.11873 311.483 -0.729167 308.635C-3.57706 305.787 -5.177 301.924 -5.177 297.897C-5.177 293.869 -3.57706 290.007 -0.729168 287.159C2.11873 284.311 5.98131 282.711 10.0088 282.711C14.0364 282.711 17.899 284.311 20.7469 287.159C23.5948 290.007 25.1947 293.869 25.1947 297.897C25.1947 301.924 23.5948 305.787 20.7469 308.635C17.899 311.483 14.0364 313.083 10.0088 313.083ZM10.0088 268.304C5.98131 268.304 2.11873 266.704 -0.729169 263.856C-3.57707 261.008 -5.177 257.146 -5.177 253.118C-5.177 249.09 -3.57707 245.228 -0.72917 242.38C2.11873 239.532 5.98131 237.932 10.0088 237.932C14.0364 237.932 17.899 239.532 20.7469 242.38C23.5947 245.228 25.1947 249.09 25.1947 253.118C25.1947 257.146 23.5948 261.008 20.7469 263.856C17.899 266.704 14.0364 268.304 10.0088 268.304ZM48.9469 402.64C45.9213 402.757 42.9299 401.966 40.357 400.37C37.784 398.773 35.747 396.444 34.5076 393.682C33.2681 390.919 32.8828 387.849 33.4011 384.866C33.9195 381.883 35.3177 379.123 37.4164 376.94C39.515 374.757 42.2182 373.252 45.1788 372.617C48.1394 371.982 51.2221 372.247 54.0312 373.377C56.8402 374.507 59.2473 376.452 60.9432 378.96C62.6391 381.468 63.5464 384.426 63.5487 387.454C63.5744 389.439 63.2057 391.41 62.4639 393.251C61.7221 395.092 60.6219 396.768 59.2273 398.181C57.8327 399.593 56.1713 400.715 54.3397 401.481C52.5081 402.246 50.5427 402.64 48.5575 402.64L48.9469 402.64ZM48.9469 357.861C45.9213 357.978 42.9299 357.187 40.357 355.591C37.784 353.995 35.747 351.666 34.5076 348.903C33.2681 346.14 32.8828 343.07 33.4011 340.087C33.9195 337.104 35.3177 334.344 37.4164 332.161C39.515 329.979 42.2182 328.473 45.1788 327.838C48.1394 327.204 51.2221 327.468 54.0312 328.598C56.8402 329.729 59.2473 331.673 60.9432 334.181C62.6391 336.69 63.5464 339.648 63.5487 342.676C63.682 344.725 63.393 346.779 62.6996 348.712C62.0061 350.644 60.923 352.414 59.5174 353.911C58.1119 355.408 56.4138 356.6 54.5285 357.413C52.6432 358.227 50.6108 358.644 48.5575 358.64L48.9469 357.861ZM48.9469 313.083C45.9213 313.199 42.9299 312.408 40.357 310.812C37.784 309.216 35.747 306.887 34.5076 304.124C33.2681 301.362 32.8828 298.292 33.4011 295.308C33.9195 292.325 35.3177 289.565 37.4164 287.383C39.515 285.2 42.2182 283.695 45.1788 283.06C48.1394 282.425 51.2221 282.69 54.0312 283.82C56.8402 284.95 59.2473 286.894 60.9432 289.402C62.6391 291.911 63.5464 294.869 63.5487 297.897C63.5744 299.882 63.2057 301.852 62.4639 303.693C61.7221 305.535 60.6219 307.21 59.2273 308.623C57.8327 310.036 56.1713 311.158 54.3397 311.923C52.5081 312.689 50.5427 313.083 48.5575 313.083L48.9469 313.083ZM48.9469 268.304C45.9213 268.42 42.9299 267.63 40.357 266.033C37.784 264.437 35.747 262.108 34.5076 259.345C33.2681 256.583 32.8828 253.513 33.4011 250.53C33.9194 247.547 35.3177 244.786 37.4164 242.604C39.515 240.421 42.2182 238.916 45.1788 238.281C48.1394 237.646 51.2221 237.911 54.0312 239.041C56.8402 240.171 59.2473 242.115 60.9432 244.624C62.6391 247.132 63.5464 250.09 63.5487 253.118C63.5744 255.103 63.2057 257.073 62.4639 258.915C61.7221 260.756 60.6219 262.432 59.2273 263.844C57.8327 265.257 56.1713 266.379 54.3397 267.144C52.5081 267.91 50.5427 268.304 48.5575 268.304L48.9469 268.304Z" fill="white"/>
<path opacity="0.15" d="M-19 0.24707L-19 198.247L76.0245 198.247L76.0245 0.247066L-19 0.24707ZM60.5103 181.957L-3.4858 181.957L-3.4858 171.097L60.5103 171.097L60.5103 181.957ZM60.5103 159.462L-3.4858 159.462L-3.4858 148.602L60.5103 148.602L60.5103 159.462ZM60.5103 137.354L-3.4858 137.354L-3.4858 126.494L60.5103 126.494L60.5103 137.354ZM60.5103 115.44L-3.4858 115.44L-3.4858 104.386L60.5103 104.386L60.5103 115.44ZM60.5103 93.3323L-3.4858 93.3323L-3.4858 81.8906L60.5103 81.8906L60.5103 93.3323ZM60.5103 71.2245L-3.4858 71.2245L-3.4858 60.3646L60.5103 60.3646L60.5103 71.2245ZM60.5103 49.1168L-3.48581 49.1168L-3.48581 38.2569L60.5103 38.2569L60.5103 49.1168ZM60.5103 27.203L-3.48581 27.203L-3.48581 16.1491L60.5103 16.1491L60.5103 27.203Z" fill="white"/>
<path opacity="0.15" d="M245 222.357L245 420.357L340.118 420.357L340.118 222.357L245 222.357ZM276.253 403.275L264.412 403.275L264.412 390.851L277.224 390.851L276.253 403.275ZM276.253 381.727L264.412 381.727L264.412 369.11L277.224 369.11L276.253 381.727ZM276.253 359.986L264.412 359.986L264.412 347.369L277.224 347.369L276.253 359.986ZM276.253 338.439L264.412 338.439L264.412 325.822L277.224 325.822L276.253 338.439ZM276.253 316.698L264.412 316.698L264.412 304.08L277.224 304.08L276.253 316.698ZM276.253 295.151L264.412 295.151L264.412 282.533L277.224 282.533L276.253 295.151ZM276.253 273.604L264.412 273.604L264.412 260.986L277.224 260.986L276.253 273.604ZM276.253 251.863L264.412 251.863L264.412 239.245L277.224 239.245L276.253 251.863ZM298.965 403.275L286.153 403.275L286.153 390.851L298.965 390.851L298.965 403.275ZM298.965 381.727L286.153 381.727L286.153 369.11L298.965 369.11L298.965 381.727ZM298.965 359.986L286.153 359.986L286.153 347.369L298.965 347.369L298.965 359.986ZM298.965 338.439L286.153 338.439L286.153 325.822L298.965 325.822L298.965 338.439ZM298.965 316.698L286.153 316.698L286.153 304.08L298.965 304.08L298.965 316.698ZM298.965 295.151L286.153 295.151L286.153 282.533L298.965 282.533L298.965 295.151ZM298.965 273.604L286.153 273.604L286.153 260.986L298.965 260.986L298.965 273.604ZM298.965 251.863L286.153 251.863L286.153 239.245L298.965 239.245L298.965 251.863ZM322.647 403.08L308.865 403.08L308.865 390.851L322.647 390.851L322.647 403.08ZM322.647 381.533L308.865 381.533L308.865 368.916L322.647 368.916L322.647 381.533ZM322.647 359.986L308.865 359.986L308.865 347.369L322.647 347.369L322.647 359.986ZM322.647 338.245L308.865 338.245L308.865 325.627L322.647 325.627L322.647 338.245ZM322.647 316.698L308.865 316.698L308.865 304.08L322.647 304.08L322.647 316.698ZM322.647 295.151L308.865 295.151L308.865 282.533L322.647 282.533L322.647 295.151ZM322.647 273.41L308.865 273.41L308.865 260.792L322.647 260.792L322.647 273.41ZM322.647 251.863L308.865 251.863L308.865 239.245L322.647 239.245L322.647 251.863Z" fill="white"/>
<path opacity="0.15" d="M340.118 55.6805L340.118 0.356914L245 0.356918L245 35.2981L324.782 35.2981L324.782 40.9275L245 40.9275L245 75.0922L324.782 75.0922L324.782 80.7217L245 80.7217L245 116.828L324.782 116.828L324.782 122.457L245 122.457L245 157.204L324.782 157.204L324.782 163.028L245 163.028L245 198.357L340.118 198.357L340.118 142.645L260.335 142.645L260.335 137.016L340.118 137.016L340.118 61.3099L260.335 61.3099L260.335 55.6805L340.118 55.6805ZM260.335 20.7393L260.335 14.7216L324.782 14.7216L324.782 20.7393L260.335 20.7393ZM324.782 183.798L260.335 183.798L260.335 177.586L324.782 177.586L324.782 183.798ZM260.335 102.269L260.335 96.0569L324.782 96.0569L324.782 102.269L260.335 102.269Z" fill="white"/>
</svg>
