<svg width="1400" height="519" viewBox="0 0 1400 519" fill="none" xmlns="http://www.w3.org/2000/svg">
<g opacity="0.15">
<path d="M106.646 138.26L106.646 622.355L339.888 622.355L339.888 138.26L106.646 138.26ZM177.571 579.039C167.724 579.039 158.28 575.127 151.317 568.165C144.354 561.202 140.442 551.758 140.442 541.911C140.442 532.064 144.354 522.62 151.317 515.657C158.28 508.694 167.724 504.783 177.571 504.783C187.418 504.783 196.862 508.694 203.824 515.657C210.787 522.62 214.699 532.064 214.699 541.911C214.699 551.758 210.787 561.202 203.824 568.165C196.862 575.127 187.418 579.039 177.571 579.039ZM177.571 469.558C167.724 469.558 158.28 465.647 151.317 458.684C144.354 451.721 140.442 442.277 140.442 432.43C140.442 422.583 144.354 413.139 151.317 406.176C158.28 399.214 167.724 395.302 177.571 395.302C187.418 395.302 196.862 399.214 203.824 406.176C210.787 413.139 214.699 422.583 214.699 432.43C214.699 442.277 210.787 451.721 203.824 458.684C196.862 465.647 187.418 469.558 177.571 469.558ZM177.571 360.078C167.724 360.078 158.28 356.166 151.317 349.203C144.354 342.24 140.442 332.796 140.442 322.949C140.442 313.102 144.354 303.659 151.317 296.696C158.28 289.733 167.724 285.821 177.571 285.821C187.418 285.821 196.862 289.733 203.824 296.696C210.787 303.659 214.699 313.102 214.699 322.949C214.699 332.796 210.787 342.24 203.824 349.203C196.862 356.166 187.418 360.078 177.571 360.078ZM177.571 250.597C167.724 250.597 158.28 246.685 151.317 239.722C144.354 232.759 140.442 223.315 140.442 213.468C140.442 203.621 144.354 194.178 151.317 187.215C158.28 180.252 167.724 176.34 177.571 176.34C187.418 176.34 196.862 180.252 203.824 187.215C210.787 194.178 214.699 203.621 214.699 213.468C214.699 223.315 210.787 232.759 203.824 239.722C196.862 246.685 187.418 250.597 177.571 250.597ZM272.771 579.039C265.374 579.324 258.06 577.391 251.77 573.488C245.479 569.585 240.499 563.891 237.468 557.137C234.438 550.382 233.496 542.876 234.763 535.583C236.03 528.289 239.449 521.541 244.58 516.204C249.711 510.868 256.32 507.188 263.559 505.635C270.797 504.083 278.334 504.73 285.202 507.494C292.07 510.257 297.955 515.01 302.102 521.143C306.248 527.276 308.466 534.508 308.472 541.911C308.535 546.764 307.633 551.581 305.82 556.083C304.006 560.585 301.316 564.682 297.906 568.136C294.497 571.59 290.435 574.333 285.957 576.204C281.478 578.076 276.673 579.04 271.819 579.039L272.771 579.039ZM272.771 469.558C265.374 469.843 258.06 467.91 251.77 464.007C245.479 460.104 240.499 454.41 237.468 447.656C234.438 440.902 233.496 433.396 234.763 426.102C236.03 418.808 239.449 412.06 244.58 406.724C249.711 401.387 256.32 397.707 263.559 396.155C270.797 394.602 278.334 395.249 285.202 398.013C292.07 400.776 297.955 405.529 302.102 411.662C306.248 417.795 308.466 425.027 308.472 432.43C308.798 437.44 308.091 442.463 306.396 447.188C304.7 451.914 302.052 456.24 298.616 459.9C295.179 463.559 291.027 466.474 286.418 468.463C281.809 470.452 276.84 471.473 271.819 471.462L272.771 469.558ZM272.771 360.078C265.374 360.362 258.06 358.429 251.77 354.526C245.479 350.624 240.499 344.929 237.468 338.175C234.438 331.421 233.496 323.915 234.763 316.621C236.03 309.327 239.449 302.579 244.58 297.243C249.711 291.906 256.32 288.226 263.559 286.674C270.797 285.122 278.334 285.769 285.202 288.532C292.07 291.295 297.955 296.048 302.102 302.181C306.248 308.314 308.466 315.546 308.472 322.949C308.535 327.802 307.633 332.62 305.82 337.122C304.006 341.624 301.316 345.721 297.906 349.175C294.497 352.629 290.435 355.371 285.957 357.243C281.478 359.114 276.673 360.078 271.819 360.078L272.771 360.078ZM272.771 250.597C265.374 250.881 258.06 248.948 251.77 245.045C245.479 241.143 240.499 235.448 237.468 228.694C234.438 221.94 233.496 214.434 234.763 207.14C236.03 199.847 239.449 193.098 244.58 187.762C249.711 182.426 256.32 178.745 263.559 177.193C270.797 175.641 278.334 176.288 285.202 179.051C292.07 181.814 297.955 186.568 302.101 192.7C306.248 198.833 308.466 206.065 308.472 213.468C308.535 218.322 307.633 223.139 305.82 227.641C304.006 232.143 301.316 236.24 297.906 239.694C294.497 243.148 290.435 245.89 285.957 247.762C281.478 249.634 276.673 250.597 271.819 250.597L272.771 250.597Z" fill="white"/>
<path d="M-160 -104.739L-160 381.26L73.2418 381.26L73.2417 -104.739L-160 -104.739ZM35.1615 341.276L-121.92 341.276L-121.92 314.62L35.1615 314.62L35.1615 341.276ZM35.1614 286.06L-121.92 286.06L-121.92 259.403L35.1614 259.403L35.1614 286.06ZM35.1614 231.795L-121.92 231.795L-121.92 205.139L35.1614 205.139L35.1614 231.795ZM35.1614 178.007L-121.92 178.007L-121.92 150.875L35.1614 150.875L35.1614 178.007ZM35.1614 123.742L-121.92 123.742L-121.92 95.6581L35.1614 95.6581L35.1614 123.742ZM35.1614 69.4779L-121.92 69.4779L-121.92 42.8217L35.1614 42.8217L35.1614 69.4779ZM35.1614 15.2135L-121.92 15.2135L-121.92 -11.4427L35.1614 -11.4427L35.1614 15.2135ZM35.1614 -38.5749L-121.92 -38.5749L-121.92 -65.7071L35.1614 -65.7071L35.1614 -38.5749Z" fill="white"/>
</g>
<g opacity="0.15">
<path d="M1327.3 -104.739L1327.3 381.26L1560.78 381.26L1560.78 -104.739L1327.3 -104.739ZM1404.02 339.331L1374.95 339.331L1374.95 308.837L1406.4 308.837L1404.02 339.331ZM1404.02 286.443L1374.95 286.443L1374.95 255.472L1406.4 255.472L1404.02 286.443ZM1404.02 233.078L1374.95 233.078L1374.95 202.108L1406.4 202.108L1404.02 233.078ZM1404.02 180.19L1374.95 180.19L1374.95 149.219L1406.4 149.219L1404.02 180.19ZM1404.02 126.825L1374.95 126.825L1374.95 95.8547L1406.4 95.8547L1404.02 126.825ZM1404.02 73.9371L1374.95 73.9371L1374.95 42.9664L1406.4 42.9664L1404.02 73.9371ZM1404.02 21.0488L1374.95 21.0488L1374.95 -9.92163L1406.4 -9.92163L1404.02 21.0488ZM1404.02 -32.3158L1374.95 -32.3158L1374.95 -63.2864L1406.4 -63.2864L1404.02 -32.3158ZM1459.76 339.331L1428.32 339.331L1428.32 308.837L1459.76 308.837L1459.76 339.331ZM1459.76 286.443L1428.32 286.443L1428.32 255.472L1459.76 255.472L1459.76 286.443ZM1459.76 233.078L1428.32 233.078L1428.32 202.108L1459.76 202.108L1459.76 233.078ZM1459.76 180.19L1428.32 180.19L1428.32 149.219L1459.76 149.219L1459.76 180.19ZM1459.76 126.825L1428.32 126.825L1428.32 95.8547L1459.76 95.8547L1459.76 126.825ZM1459.76 73.9371L1428.32 73.9371L1428.32 42.9664L1459.76 42.9664L1459.76 73.9371ZM1459.76 21.0488L1428.32 21.0488L1428.32 -9.92164L1459.76 -9.92164L1459.76 21.0488ZM1459.76 -32.3158L1428.32 -32.3158L1428.32 -63.2864L1459.76 -63.2864L1459.76 -32.3158ZM1517.89 338.855L1484.06 338.855L1484.06 308.837L1517.89 308.837L1517.89 338.855ZM1517.89 285.966L1484.06 285.966L1484.06 254.996L1517.89 254.996L1517.89 285.966ZM1517.89 233.078L1484.06 233.078L1484.06 202.108L1517.89 202.108L1517.89 233.078ZM1517.89 179.714L1484.06 179.714L1484.06 148.743L1517.89 148.743L1517.89 179.714ZM1517.89 126.825L1484.06 126.825L1484.06 95.8547L1517.89 95.8547L1517.89 126.825ZM1517.89 73.9371L1484.06 73.9371L1484.06 42.9664L1517.89 42.9664L1517.89 73.9371ZM1517.89 20.5724L1484.06 20.5724L1484.06 -10.3982L1517.89 -10.3982L1517.89 20.5724ZM1517.89 -32.3158L1484.06 -32.3158L1484.06 -63.2864L1517.89 -63.2864L1517.89 -32.3158Z" fill="white"/>
<path d="M1293.47 274.055L1293.47 138.261L1060 138.261L1060 224.025L1255.83 224.025L1255.83 237.843L1060 237.843L1060 321.702L1255.83 321.702L1255.83 335.52L1060 335.52L1060 424.143L1255.83 424.143L1255.83 437.961L1060 437.961L1060 523.249L1255.83 523.249L1255.83 537.543L1060 537.543L1060 624.261L1293.47 624.261L1293.47 487.514L1097.64 487.514L1097.64 473.696L1293.47 473.696L1293.47 287.873L1097.64 287.873L1097.64 274.055L1293.47 274.055ZM1097.64 188.29L1097.64 173.52L1255.83 173.52L1255.83 188.29L1097.64 188.29ZM1255.83 588.525L1097.64 588.525L1097.64 573.278L1255.83 573.278L1255.83 588.525ZM1097.64 388.408L1097.64 373.161L1255.83 373.161L1255.83 388.408L1097.64 388.408Z" fill="white"/>
</g>
</svg>
