<svg width="212" height="431" viewBox="0 0 212 431" fill="none" xmlns="http://www.w3.org/2000/svg">
<path opacity="0.6" d="M211.539 210.487L211.539 0L109.36 -4.46635e-06L109.36 210.487L211.539 210.487ZM126.117 17.3703L194.986 17.3703L194.986 28.9778L126.117 28.9778L126.117 17.3703ZM126.117 40.7896L194.986 40.7896L194.986 52.4379L126.117 52.4379L126.117 40.7896ZM126.117 64.2497L194.986 64.2497L194.986 75.8572L126.117 75.8572L126.117 64.2497ZM126.117 87.7099L194.986 87.7099L194.986 99.3173L126.117 99.3173L126.117 87.7099ZM126.117 111.17L194.986 111.17L194.986 122.777L126.117 122.777L126.117 111.17ZM126.117 134.63L194.986 134.63L194.986 146.238L126.117 146.238L126.117 134.63ZM126.117 158.049L194.986 158.049L194.986 169.698L126.117 169.698L126.117 158.049ZM126.117 181.51L194.986 181.51L194.986 193.117L126.117 193.117L126.117 181.51Z" fill="white"/>
<path d="M51.3207 160.847L51.3207 162.232L-0.000977073 162.232L-0.000976562 173.913L101.052 173.913L101.052 163.6L51.3207 156.726L51.3207 155.357L101.052 155.306L101.052 143.66L-0.000977885 143.66L-0.000977434 153.972L51.3207 160.847Z" fill="#FFD140"/>
<path d="M51.3207 52.9037L51.3207 54.3059L-0.000977073 54.3059L-0.000976562 65.9863L101.052 65.9863L101.052 55.657L51.3207 48.7822L51.3207 47.4312L101.052 47.3627L101.052 35.7166L-0.000977886 35.7166L-0.000977435 46.0288L51.3207 52.9037Z" fill="#FFD140"/>
<path d="M-0.00097731 11.6899L80.6329 11.6899L80.6329 17.2137L-0.000977069 17.2137L-0.000976562 28.7915L80.5644 28.7915C82.3787 28.7915 84.1186 28.0708 85.4015 26.7879C86.6843 25.5051 87.4051 23.7651 87.4051 21.9509L87.4051 11.6899L101.086 11.6899L101.086 0.0437902L-0.000977819 0.0437946L-0.00097731 11.6899Z" fill="#FFD140"/>
<path d="M6.83964 107.933C5.0254 107.933 3.28545 108.654 2.00259 109.936C0.719723 111.219 -0.000977611 112.959 -0.000977531 114.773L-0.000976568 136.817L101.052 136.937L101.052 125.291L87.3709 125.291L87.3709 114.893C87.3709 113.079 86.6502 111.339 85.3674 110.056C84.0845 108.773 82.3445 108.052 80.5303 108.052L65.5322 108.052L6.83964 107.933ZM80.65 119.664L80.65 125.257L6.77128 125.103L6.77128 119.63L21.8549 119.63L80.65 119.664Z" fill="#FFD140"/>
<path d="M5.45432 178.052L-0.00097798 178.069L-0.000977469 189.766L47.8491 195.923L47.8663 198.71L-0.000977081 198.642L-0.000976568 210.373L101.052 210.493L101.052 198.796L54.6555 198.727L54.6726 196.282L101.052 190.604L101.052 178.907L95.5283 178.89L51.5259 184.567L5.45432 178.052Z" fill="#FFD140"/>
<path d="M-0.00097708 89.4162L-0.000976907 93.3667L-0.000976901 93.5035L-0.000976568 101.131L101.052 101.25L101.052 89.6043L6.87378 89.4334L6.87378 84.5765L101.052 84.6791L101.052 73.0329L-0.000977804 72.8448L-0.000977312 84.0977L-0.00097708 89.4162Z" fill="#FFD140"/>
<path opacity="0.6" d="M109.776 220.443L109.776 430.578L211.538 430.578L211.538 220.443L109.776 220.443ZM144.377 236.356L177.019 236.356L177.019 250.269L144.377 250.269L144.377 236.356ZM124.873 236.356L139.154 236.356L139.154 250.269L124.873 250.269L124.873 236.356ZM124.873 254.635L157.515 254.635L157.515 268.549L124.873 268.549L124.873 254.635ZM176.938 272.874L176.938 286.788L144.295 286.788L144.295 272.874L176.938 272.874ZM124.873 272.874L139.154 272.874L139.154 286.788L124.873 286.788L124.873 272.874ZM124.873 291.154L157.515 291.154L157.515 305.068L124.873 305.068L124.873 291.154ZM176.938 309.434L176.938 323.348L144.295 323.348L144.295 309.434L176.938 309.434ZM124.873 309.434L139.154 309.434L139.154 323.348L124.873 323.348L124.873 309.434ZM124.873 327.673L157.515 327.673L157.515 341.586L124.873 341.586L124.873 327.673ZM176.938 345.952L176.938 359.866L144.295 359.866L144.295 345.952L176.938 345.952ZM124.873 345.952L139.154 345.952L139.154 359.866L124.873 359.866L124.873 345.952ZM124.873 364.232L157.515 364.232L157.515 378.146L124.873 378.146L124.873 364.232ZM176.938 382.471L176.938 396.303L144.295 396.303L144.295 382.349L176.938 382.471ZM124.873 382.471L139.154 382.471L139.154 396.303L124.873 396.303L124.873 382.471ZM157.515 414.664L124.873 414.664L124.873 400.751L157.515 400.751L157.515 414.664ZM196.523 414.664L163.881 414.664L163.881 400.751L196.523 400.751L196.523 414.664ZM196.523 396.426L182.242 396.426L182.242 382.471L196.523 382.471L196.523 396.426ZM196.523 378.146L163.881 378.146L163.881 364.232L196.523 364.232L196.523 378.146ZM196.523 359.866L182.242 359.866L182.242 345.952L196.523 345.952L196.523 359.866ZM196.523 341.586L163.881 341.586L163.881 327.673L196.523 327.673L196.523 341.586ZM196.523 323.348L182.242 323.348L182.242 309.434L196.523 309.434L196.523 323.348ZM196.523 305.068L163.881 305.068L163.881 291.154L196.523 291.154L196.523 305.068ZM196.523 286.788L182.242 286.788L182.242 272.874L196.523 272.874L196.523 286.788ZM196.523 268.549L163.881 268.549L163.881 254.635L196.523 254.635L196.523 268.549ZM196.523 250.269L182.242 250.269L182.242 236.356L196.523 236.356L196.523 250.269Z" fill="white"/>
<path opacity="0.6" d="M0.00243221 220.535L0.00244141 431L101.966 431L101.966 220.535L0.00243221 220.535ZM30.8979 412.16C27.6971 412.242 24.5448 411.367 21.8437 409.648C19.1426 407.928 17.0155 405.443 15.7339 402.509C14.4523 399.575 14.0745 396.325 14.6489 393.175C15.2232 390.026 16.7236 387.119 18.9583 384.826C21.193 382.533 24.0605 380.958 27.1945 380.303C30.3286 379.648 33.5869 379.942 36.553 381.148C39.5191 382.353 42.0581 384.416 43.8462 387.072C45.6341 389.728 46.5899 392.857 46.5909 396.059C46.6179 398.146 46.2333 400.219 45.4592 402.158C44.6852 404.097 43.5367 405.865 42.0794 407.36C40.6222 408.855 38.8846 410.049 36.9661 410.872C35.0475 411.696 32.9856 412.134 30.8979 412.16ZM30.8979 364.714C27.6971 364.795 24.5448 363.92 21.8437 362.201C19.1426 360.482 17.0155 357.996 15.7339 355.062C14.4523 352.128 14.0745 348.879 14.6489 345.729C15.2232 342.579 16.7236 339.672 18.9583 337.379C21.193 335.086 24.0605 333.512 27.1945 332.856C30.3286 332.201 33.5869 332.495 36.553 333.701C39.5191 334.907 42.0581 336.97 43.8461 339.626C45.6341 342.282 46.5899 345.41 46.5909 348.612C46.6179 350.7 46.2333 352.772 45.4592 354.712C44.6852 356.651 43.5367 358.418 42.0794 359.913C40.6222 361.409 38.8846 362.602 36.9661 363.426C35.0475 364.249 32.9856 364.687 30.8979 364.714ZM30.8979 317.267C27.6954 317.348 24.5415 316.473 21.8395 314.752C19.1375 313.031 17.0101 310.543 15.7296 307.606C14.4492 304.67 14.0739 301.418 14.6516 298.267C15.2293 295.116 16.7337 292.209 18.9725 289.918C21.2114 287.627 24.083 286.055 27.2197 285.405C30.3565 284.754 33.6161 285.054 36.5814 286.266C39.5468 287.478 42.083 289.547 43.8661 292.209C45.6492 294.87 46.598 298.003 46.5909 301.206C46.6345 305.416 45.0068 309.47 42.065 312.481C39.1231 315.492 35.107 317.213 30.8979 317.267ZM30.8979 269.984C27.7076 270.065 24.5655 269.195 21.8702 267.487C19.1749 265.778 17.0481 263.307 15.7598 260.387C14.4716 257.468 14.0799 254.231 14.6346 251.088C15.1894 247.946 16.6657 245.039 18.8757 242.737C21.0858 240.435 23.93 238.841 27.0474 238.159C30.1648 237.476 33.4148 237.735 36.3846 238.903C39.3544 240.071 41.9102 242.096 43.7274 244.719C45.5446 247.342 46.5413 250.446 46.5909 253.637C46.6507 255.745 46.2904 257.844 45.5311 259.812C44.7717 261.779 43.6285 263.576 42.168 265.097C40.7075 266.619 38.9588 267.834 37.0239 268.673C35.089 269.512 33.0066 269.958 30.8979 269.984ZM72.0919 412.16C68.8911 412.242 65.7388 411.367 63.0377 409.648C60.3366 407.928 58.2092 405.443 56.9276 402.509C55.646 399.575 55.2685 396.325 55.8428 393.175C56.4172 390.026 57.9176 387.119 60.1523 384.826C62.387 382.533 65.2545 380.958 68.3885 380.303C71.5226 379.648 74.7807 379.942 77.7467 381.148C80.7128 382.353 83.2521 384.416 85.0401 387.072C86.8281 389.728 87.7836 392.857 87.7846 396.059C87.8171 398.148 87.4363 400.223 86.6642 402.164C85.8921 404.106 84.7439 405.876 83.2856 407.372C81.8273 408.868 80.0875 410.061 78.1665 410.883C76.2455 411.705 74.1812 412.139 72.0919 412.16ZM72.0919 364.714C68.8911 364.795 65.7388 363.92 63.0377 362.201C60.3366 360.482 58.2092 357.996 56.9276 355.062C55.646 352.128 55.2685 348.879 55.8428 345.729C56.4172 342.579 57.9176 339.672 60.1523 337.379C62.387 335.086 65.2545 333.512 68.3885 332.856C71.5226 332.201 74.7807 332.495 77.7467 333.701C80.7128 334.907 83.2521 336.97 85.0401 339.626C86.8281 342.282 87.7836 345.41 87.7846 348.612C87.8171 350.701 87.4363 352.776 86.6642 354.718C85.8921 356.659 84.7439 358.429 83.2856 359.925C81.8273 361.422 80.0875 362.615 78.1665 363.437C76.2455 364.258 74.1811 364.692 72.0919 364.714ZM72.0919 317.267C68.8894 317.348 65.7352 316.473 63.0332 314.752C60.3312 313.031 58.2041 310.543 56.9236 307.606C55.6432 304.67 55.2679 301.418 55.8456 298.267C56.4233 295.116 57.9277 292.209 60.1665 289.918C62.4053 287.627 65.2767 286.055 68.4135 285.405C71.5503 284.754 74.8098 285.054 77.7752 286.266C80.7405 287.478 83.277 289.547 85.0601 292.209C86.8432 294.87 87.7917 298.003 87.7846 301.206C87.8116 303.292 87.4268 305.363 86.6522 307.3C85.8777 309.236 84.7287 311.001 83.2709 312.493C81.8131 313.985 80.0754 315.175 78.1571 315.994C76.2387 316.813 74.1777 317.246 72.0919 317.267ZM72.0919 269.821C68.8946 269.902 65.7454 269.029 63.0462 267.313C60.347 265.598 58.22 263.117 56.9361 260.188C55.6522 257.259 55.2698 254.013 55.8376 250.866C56.4054 247.718 57.8976 244.811 60.1241 242.515C62.3506 240.219 65.2104 238.638 68.3389 237.974C71.4674 237.309 74.723 237.592 77.6904 238.785C80.6578 239.978 83.2024 242.028 85.0002 244.673C86.798 247.318 87.7674 250.439 87.7846 253.637C87.85 255.747 87.4936 257.848 86.7363 259.818C85.979 261.788 84.836 263.587 83.3744 265.11C81.9128 266.632 80.1621 267.847 78.2246 268.684C76.2872 269.521 74.2023 269.963 72.0919 269.984L72.0919 269.821Z" fill="white"/>
</svg>
