<svg width="214" height="431" viewBox="0 0 214 431" fill="none" xmlns="http://www.w3.org/2000/svg">
<path opacity="0.6" d="M0.361807 0.052948L0.361816 210.71L102.623 210.71L102.623 0.0529435L0.361807 0.052948ZM33.7806 192.303L20.1594 192.303L20.1594 178.928L33.7806 178.928L33.7806 192.303ZM33.7806 169.356L20.1594 169.356L20.1594 155.899L33.7806 155.899L33.7806 169.356ZM33.7806 146.368L20.1594 146.368L20.1594 132.951L33.7806 132.951L33.7806 146.368ZM33.7806 123.38L20.1594 123.38L20.1594 110.086L33.7806 110.086L33.7806 123.38ZM33.7806 100.432L20.1594 100.432L20.1594 87.0156L33.7806 87.0156L33.7806 100.432ZM33.7806 77.444L20.1594 77.444L20.1594 64.0274L33.7806 64.0274L33.7806 77.444ZM33.7806 54.4557L20.1594 54.4557L20.1594 41.0391L33.7806 41.0391L33.7806 54.4557ZM33.7806 31.5084L20.1594 31.5084L20.1594 18.0918L33.7806 18.0917L33.7806 31.5084ZM58.3232 192.303L44.702 192.303L44.702 178.928L58.3232 178.928L58.3232 192.303ZM58.3232 169.356L44.702 169.356L44.702 155.899L58.3232 155.899L58.3232 169.356ZM58.3232 146.368L44.702 146.368L44.702 132.951L58.3232 132.951L58.3232 146.368ZM58.3232 123.38L44.702 123.38L44.702 110.086L58.3232 110.086L58.3232 123.38ZM58.3232 100.432L44.702 100.432L44.702 87.0156L58.3232 87.0156L58.3232 100.432ZM58.3232 77.444L44.702 77.444L44.702 64.0274L58.3232 64.0274L58.3232 77.444ZM58.3232 54.4557L44.702 54.4557L44.702 41.0391L58.3232 41.0391L58.3232 54.4557ZM58.3232 31.5084L44.702 31.5084L44.702 18.0917L58.3232 18.0917L58.3232 31.5084ZM82.8659 192.222L69.2446 192.222L69.2446 178.805L82.8659 178.805L82.8659 192.222ZM82.8659 169.233L69.2446 169.233L69.2446 155.899L82.8659 155.899L82.8659 169.233ZM82.8659 146.245L69.2446 146.245L69.2446 132.829L82.8659 132.829L82.8659 146.245ZM82.8659 123.257L69.2446 123.257L69.2446 109.881L82.8659 109.881L82.8659 123.257ZM82.8659 100.31L69.2446 100.31L69.2446 86.8929L82.8659 86.8929L82.8659 100.31ZM82.8659 77.3213L69.2446 77.3213L69.2446 63.9047L82.8659 63.9047L82.8659 77.3213ZM82.8659 54.333L69.2446 54.333L69.2446 40.9573L82.8659 40.9573L82.8659 54.333ZM82.8659 31.3857L69.2446 31.3857L69.2446 17.9691L82.8659 17.9691L82.8659 31.3857Z" fill="white"/>
<path opacity="0.6" d="M213.009 58.8204L213.009 -3.49875e-05L110.748 -3.05176e-05L110.748 37.2229L196.32 37.2229L196.32 43.4404L110.952 43.4404L110.952 80.2543L196.524 80.2543L196.524 86.3082L110.952 86.3082L110.952 124.063L196.524 124.063L196.524 129.994L110.952 129.994L110.952 166.808L196.524 166.808L196.524 173.107L110.952 173.107L110.952 210.657L213.213 210.657L213.213 151.551L127.437 151.551L127.437 145.374L213.009 145.374L213.009 64.997L127.437 64.997L127.437 58.8204L213.009 58.8204ZM127.437 22.0065L127.437 15.5436L196.524 15.5436L196.524 21.8838L127.437 22.0065ZM196.524 195.237L127.437 195.237L127.437 188.569L196.524 188.569L196.524 195.237ZM127.437 108.437L127.437 101.975L196.524 101.975L196.524 108.437L127.437 108.437Z" fill="white"/>
<path opacity="0.6" d="M111.339 220.009L111.339 431L213.762 431L213.762 220.009L111.339 220.009ZM134.978 412.564C132.86 412.621 130.773 412.045 128.984 410.91C127.195 409.775 125.786 408.132 124.935 406.191C124.085 404.25 123.832 402.1 124.21 400.015C124.589 397.93 125.58 396.006 127.057 394.487C128.535 392.969 130.432 391.925 132.506 391.491C134.58 391.056 136.736 391.249 138.699 392.046C140.662 392.843 142.343 394.208 143.527 395.965C144.71 397.723 145.343 399.793 145.344 401.912C145.366 404.694 144.29 407.373 142.349 409.367C140.409 411.361 137.76 412.51 134.978 412.564ZM134.978 387.122C132.86 387.179 130.773 386.603 128.984 385.468C127.195 384.333 125.786 382.69 124.935 380.749C124.085 378.808 123.832 376.658 124.21 374.573C124.589 372.489 125.58 370.564 127.057 369.045C128.535 367.527 130.432 366.483 132.506 366.049C134.58 365.614 136.736 365.807 138.699 366.605C140.662 367.402 142.343 368.766 143.527 370.523C144.71 372.281 145.343 374.351 145.344 376.47C145.366 379.252 144.29 381.931 142.349 383.925C140.409 385.92 137.76 387.068 134.978 387.122ZM134.978 361.639C132.859 361.696 130.77 361.119 128.98 359.982C127.19 358.845 125.78 357.2 124.931 355.257C124.082 353.314 123.832 351.161 124.213 349.075C124.595 346.99 125.59 345.065 127.072 343.548C128.554 342.031 130.454 340.991 132.531 340.561C134.607 340.131 136.765 340.33 138.727 341.133C140.69 341.937 142.368 343.308 143.547 345.07C144.725 346.833 145.351 348.908 145.344 351.028C145.366 353.807 144.288 356.481 142.347 358.469C140.405 360.457 137.757 361.596 134.978 361.639ZM134.978 336.197C132.859 336.255 130.77 335.678 128.98 334.541C127.19 333.404 125.78 331.758 124.931 329.815C124.082 327.872 123.832 325.72 124.213 323.634C124.595 321.548 125.59 319.623 127.072 318.106C128.554 316.589 130.454 315.549 132.531 315.119C134.607 314.689 136.765 314.888 138.727 315.692C140.69 316.495 142.368 317.866 143.547 319.629C144.725 321.391 145.351 323.466 145.344 325.586C145.366 328.365 144.288 331.039 142.347 333.027C140.405 335.015 137.757 336.154 134.978 336.197ZM134.978 310.756C132.859 310.813 130.77 310.236 128.98 309.099C127.19 307.962 125.78 306.316 124.931 304.373C124.082 302.43 123.832 300.278 124.213 298.192C124.595 296.106 125.59 294.181 127.072 292.664C128.554 291.147 130.454 290.107 132.531 289.677C134.607 289.247 136.765 289.446 138.727 290.25C140.69 291.053 142.368 292.424 143.547 294.187C144.725 295.95 145.351 298.024 145.344 300.145C145.312 302.888 144.211 305.51 142.275 307.454C140.339 309.397 137.721 310.508 134.978 310.551L134.978 310.756ZM134.978 285.314C132.86 285.371 130.773 284.795 128.984 283.66C127.195 282.525 125.785 280.882 124.935 278.941C124.085 277 123.832 274.85 124.21 272.765C124.589 270.68 125.58 268.756 127.057 267.237C128.535 265.719 130.432 264.675 132.506 264.24C134.58 263.806 136.736 263.999 138.699 264.796C140.662 265.593 142.343 266.958 143.527 268.715C144.71 270.473 145.343 272.543 145.344 274.662C145.377 277.447 144.304 280.132 142.361 282.129C140.419 284.125 137.764 285.271 134.978 285.314ZM134.978 259.872C132.86 259.929 130.773 259.353 128.984 258.218C127.195 257.083 125.785 255.44 124.935 253.499C124.085 251.558 123.832 249.408 124.21 247.323C124.589 245.239 125.58 243.314 127.057 241.795C128.535 240.277 130.432 239.233 132.506 238.799C134.58 238.364 136.736 238.557 138.699 239.355C140.662 240.152 142.343 241.516 143.527 243.273C144.71 245.031 145.343 247.101 145.344 249.22C145.377 252.006 144.304 254.691 142.361 256.687C140.419 258.684 137.764 259.829 134.978 259.872ZM161.117 400.396C158.999 400.453 156.912 399.877 155.123 398.742C153.334 397.607 151.924 395.964 151.073 394.023C150.223 392.082 149.971 389.932 150.349 387.847C150.727 385.763 151.718 383.838 153.196 382.319C154.673 380.801 156.57 379.757 158.644 379.323C160.718 378.888 162.874 379.081 164.837 379.879C166.8 380.676 168.481 382.04 169.665 383.797C170.848 385.555 171.481 387.625 171.482 389.744C171.504 392.526 170.428 395.205 168.488 397.199C166.547 399.194 163.899 400.342 161.117 400.396ZM161.117 374.79C158.997 374.847 156.908 374.271 155.118 373.134C153.328 371.996 151.919 370.351 151.069 368.408C150.22 366.465 149.97 364.313 150.352 362.227C150.733 360.141 151.728 358.216 153.21 356.699C154.692 355.182 156.593 354.142 158.669 353.712C160.746 353.282 162.903 353.481 164.866 354.284C166.828 355.088 168.506 356.459 169.685 358.222C170.863 359.984 171.489 362.059 171.482 364.179C171.504 366.958 170.427 369.632 168.485 371.62C166.543 373.608 163.895 374.747 161.117 374.79ZM161.117 349.226C158.999 349.283 156.912 348.707 155.123 347.572C153.334 346.436 151.924 344.793 151.073 342.853C150.223 340.912 149.971 338.762 150.349 336.677C150.727 334.592 151.718 332.667 153.196 331.149C154.673 329.63 156.57 328.587 158.644 328.152C160.718 327.717 162.874 327.911 164.837 328.708C166.8 329.505 168.481 330.87 169.665 332.627C170.848 334.384 171.481 336.455 171.482 338.574C171.515 341.359 170.442 344.044 168.5 346.041C166.557 348.037 163.902 349.183 161.117 349.226ZM161.117 323.661C158.999 323.718 156.912 323.142 155.123 322.007C153.334 320.872 151.924 319.229 151.073 317.288C150.223 315.347 149.971 313.197 150.349 311.112C150.727 309.027 151.718 307.103 153.196 305.584C154.673 304.066 156.57 303.022 158.644 302.588C160.718 302.153 162.874 302.346 164.837 303.143C166.8 303.941 168.481 305.305 169.665 307.062C170.848 308.82 171.481 310.89 171.482 313.009C171.515 315.795 170.442 318.48 168.5 320.476C166.557 322.473 163.902 323.618 161.117 323.661ZM161.117 298.096C158.999 298.153 156.912 297.577 155.123 296.442C153.334 295.307 151.924 293.664 151.073 291.723C150.223 289.783 149.971 287.632 150.349 285.548C150.727 283.463 151.718 281.538 153.196 280.02C154.673 278.501 156.57 277.458 158.644 277.023C160.718 276.588 162.874 276.782 164.837 277.579C166.8 278.376 168.481 279.74 169.665 281.498C170.848 283.255 171.481 285.325 171.482 287.444C171.515 288.836 171.272 290.22 170.768 291.518C170.264 292.815 169.509 294.001 168.546 295.005C167.583 296.01 166.431 296.815 165.156 297.374C163.881 297.932 162.508 298.234 161.117 298.26L161.117 298.096ZM161.117 272.491C158.997 272.548 156.908 271.971 155.118 270.834C153.328 269.697 151.919 268.051 151.069 266.108C150.22 264.165 149.97 262.013 150.352 259.927C150.733 257.841 151.728 255.916 153.21 254.399C154.692 252.882 156.593 251.842 158.669 251.412C160.746 250.982 162.903 251.181 164.866 251.985C166.828 252.788 168.506 254.159 169.685 255.922C170.863 257.685 171.489 259.759 171.482 261.88C171.504 264.658 170.427 267.333 168.485 269.32C166.543 271.308 163.895 272.447 161.117 272.491ZM186.763 412.564C184.647 412.613 182.564 412.03 180.78 410.889C178.996 409.749 177.593 408.103 176.749 406.161C175.905 404.22 175.658 402.071 176.041 399.989C176.424 397.906 177.419 395.986 178.898 394.471C180.378 392.957 182.275 391.918 184.347 391.486C186.42 391.055 188.574 391.251 190.535 392.049C192.496 392.848 194.174 394.213 195.356 395.969C196.537 397.726 197.169 399.795 197.169 401.912C197.186 403.295 196.929 404.667 196.415 405.951C195.901 407.234 195.139 408.404 194.173 409.393C193.206 410.382 192.055 411.172 190.784 411.716C189.512 412.26 188.146 412.548 186.763 412.564ZM186.763 387.122C184.647 387.171 182.564 386.588 180.78 385.448C178.996 384.307 177.593 382.661 176.749 380.72C175.905 378.778 175.658 376.629 176.041 374.547C176.424 372.465 177.419 370.544 178.898 369.029C180.378 367.515 182.275 366.476 184.347 366.044C186.42 365.613 188.574 365.809 190.535 366.608C192.496 367.406 194.174 368.771 195.356 370.527C196.537 372.284 197.169 374.353 197.169 376.47C197.186 377.853 196.929 379.225 196.415 380.509C195.901 381.793 195.139 382.962 194.173 383.952C193.206 384.941 192.055 385.73 190.784 386.274C189.512 386.818 188.146 387.106 186.763 387.122ZM186.763 361.639C184.645 361.688 182.56 361.104 180.776 359.962C178.991 358.82 177.588 357.171 176.745 355.227C175.902 353.283 175.658 351.132 176.044 349.049C176.43 346.966 177.429 345.045 178.912 343.532C180.396 342.019 182.297 340.983 184.373 340.556C186.448 340.13 188.603 340.332 190.563 341.137C192.524 341.941 194.199 343.312 195.376 345.074C196.553 346.837 197.177 348.909 197.169 351.028C197.191 353.814 196.108 356.494 194.158 358.483C192.208 360.472 189.549 361.607 186.763 361.639ZM186.763 336.197C184.645 336.246 182.56 335.662 180.776 334.52C178.991 333.378 177.588 331.73 176.745 329.786C175.902 327.842 175.658 325.69 176.044 323.607C176.43 321.524 177.429 319.603 178.912 318.09C180.396 316.577 182.297 315.541 184.373 315.115C186.448 314.688 188.603 314.89 190.563 315.695C192.524 316.5 194.199 317.871 195.376 319.633C196.553 321.395 197.177 323.468 197.169 325.586C197.191 328.372 196.108 331.053 194.158 333.041C192.208 335.03 189.549 336.165 186.763 336.197ZM186.763 310.756C184.645 310.805 182.56 310.221 180.776 309.078C178.991 307.936 177.588 306.288 176.745 304.344C175.902 302.4 175.658 300.249 176.044 298.165C176.43 296.082 177.429 294.161 178.912 292.648C180.396 291.135 182.297 290.099 184.373 289.673C186.448 289.246 188.603 289.448 190.563 290.253C192.524 291.058 194.199 292.429 195.376 294.191C196.553 295.953 197.177 298.026 197.169 300.145C197.138 302.895 196.031 305.523 194.086 307.468C192.142 309.412 189.513 310.519 186.763 310.551L186.763 310.756ZM186.763 285.314C184.647 285.363 182.564 284.78 180.78 283.639C178.996 282.499 177.593 280.853 176.749 278.911C175.905 276.97 175.658 274.821 176.041 272.739C176.424 270.656 177.419 268.735 178.898 267.221C180.378 265.707 182.275 264.668 184.347 264.236C186.42 263.805 188.574 264.001 190.535 264.799C192.496 265.598 194.174 266.963 195.356 268.719C196.537 270.476 197.169 272.545 197.169 274.662C197.186 276.045 196.929 277.417 196.415 278.701C195.901 279.984 195.139 281.154 194.173 282.143C193.206 283.132 192.055 283.922 190.784 284.466C189.512 285.01 188.146 285.298 186.763 285.314ZM186.763 259.872C184.647 259.921 182.564 259.338 180.78 258.198C178.996 257.057 177.593 255.411 176.749 253.47C175.905 251.528 175.658 249.379 176.041 247.297C176.424 245.215 177.419 243.294 178.898 241.779C180.378 240.265 182.275 239.226 184.347 238.794C186.42 238.363 188.574 238.559 190.535 239.358C192.496 240.156 194.174 241.521 195.356 243.277C196.537 245.034 197.169 247.103 197.169 249.22C197.186 250.603 196.929 251.975 196.415 253.259C195.901 254.543 195.139 255.712 194.173 256.701C193.206 257.691 192.055 258.48 190.784 259.024C189.512 259.568 188.146 259.856 186.763 259.872Z" fill="white"/>
<path opacity="0.6" d="M0.439932 219.944L0.439941 430.93L102.861 430.93L102.861 219.944L0.439932 219.944ZM86.0637 413.519L17.032 413.519L17.032 401.884L86.0637 401.884L86.0637 413.519ZM86.0637 390.044L17.032 390.044L17.032 378.368L86.0637 378.368L86.0637 390.044ZM86.0637 366.528L17.032 366.528L17.032 354.893L86.0637 354.893L86.0637 366.528ZM86.0637 343.012L17.032 343.012L17.032 331.377L86.0637 331.377L86.0637 343.012ZM86.0637 319.497L17.032 319.497L17.032 307.862L86.0637 307.862L86.0637 319.497ZM86.0637 295.981L17.032 295.981L17.032 284.346L86.0637 284.346L86.0637 295.981ZM86.0637 272.506L17.032 272.506L17.032 260.83L86.0637 260.83L86.0637 272.506ZM86.0637 248.99L17.032 248.99L17.032 237.355L86.0637 237.355L86.0637 248.99Z" fill="white"/>
</svg>
