<svg width="959" height="111" viewBox="0 0 959 111" fill="none" xmlns="http://www.w3.org/2000/svg">
<path d="M958.816 0.629669H729.837V110.63H958.816V0.629669ZM749.592 36.7725V23.0786H763.959V37.895L749.592 36.7725ZM774.51 36.7725V23.0786H789.102V37.895L774.51 36.7725ZM799.653 36.7725V23.0786H814.245V37.895L799.653 36.7725ZM824.571 36.7725V23.0786H839.163V37.895L824.571 36.7725ZM849.714 36.7725V23.0786H864.306V37.895L849.714 36.7725ZM874.633 36.7725V23.0786H889.224V37.895L874.633 36.7725ZM899.551 36.7725V23.0786H914.143V37.895L899.551 36.7725ZM924.694 36.7725V23.0786H939.286V37.895L924.694 36.7725ZM749.592 63.0378V48.2215H763.959V63.0378H749.592ZM774.51 63.0378V48.2215H789.102V63.0378H774.51ZM799.653 63.0378V48.2215H814.245V63.0378H799.653ZM824.571 63.0378V48.2215H839.163V63.0378H824.571ZM849.714 63.0378V48.2215H864.306V63.0378H849.714ZM874.633 63.0378V48.2215H889.224V63.0378H874.633ZM899.551 63.0378V48.2215H914.143V63.0378H899.551ZM924.694 63.0378V48.2215H939.286V63.0378H924.694ZM749.816 90.4256V74.4868H763.959V90.4256H749.816ZM774.735 90.4256V74.4868H789.326V90.4256H774.735ZM799.653 90.4256V74.4868H814.245V90.4256H799.653ZM824.796 90.4256V74.4868H839.388V90.4256H824.796ZM849.714 90.4256V74.4868H864.306V90.4256H849.714ZM874.633 90.4256V74.4868H889.224V90.4256H874.633ZM899.775 90.4256V74.4868H914.367V90.4256H899.775ZM924.694 90.4256V74.4868H939.286V90.4256H924.694Z" fill="#9BB9CA"/>
<path d="M651.712 110.63H715.691V0.629669H675.283V92.895H668.773V0.629669H629.263V92.895H622.753V0.629669H580.997V92.895H574.487V0.629669H534.304V92.895H527.569V0.629669H486.712V110.63H551.14V18.3644H557.65V110.63H645.201V18.3644H651.712V110.63ZM692.12 18.3644H699.079V92.895H692.12V18.3644ZM503.548 92.895V18.3644H510.732V92.895H503.548ZM597.834 18.3644H605.018V92.895H597.834V18.3644Z" fill="#9BB9CA"/>
<path d="M472.115 0.629669H243.809V110.63H472.115V0.629669ZM264.237 34.0786C264.237 29.4347 266.082 24.9809 269.366 21.6971C272.65 18.4133 277.103 16.5684 281.747 16.5684C286.391 16.5684 290.845 18.4133 294.129 21.6971C297.413 24.9809 299.258 29.4347 299.258 34.0786C299.258 38.7226 297.413 43.1764 294.129 46.4602C290.845 49.744 286.391 51.5888 281.747 51.5888C277.103 51.5888 272.65 49.744 269.366 46.4602C266.082 43.1764 264.237 38.7226 264.237 34.0786ZM315.87 34.0786C315.87 29.4347 317.715 24.9809 320.998 21.6971C324.282 18.4133 328.736 16.5684 333.38 16.5684C338.024 16.5684 342.478 18.4133 345.762 21.6971C349.045 24.9809 350.89 29.4347 350.89 34.0786C350.89 38.7226 349.045 43.1764 345.762 46.4602C342.478 49.744 338.024 51.5888 333.38 51.5888C328.736 51.5888 324.282 49.744 320.998 46.4602C317.715 43.1764 315.87 38.7226 315.87 34.0786ZM367.502 34.0786C367.502 29.4347 369.347 24.9809 372.631 21.6971C375.915 18.4133 380.369 16.5684 385.013 16.5684C389.657 16.5684 394.11 18.4133 397.394 21.6971C400.678 24.9809 402.523 29.4347 402.523 34.0786C402.523 38.7226 400.678 43.1764 397.394 46.4602C394.11 49.744 389.657 51.5888 385.013 51.5888C380.369 51.5888 375.915 49.744 372.631 46.4602C369.347 43.1764 367.502 38.7226 367.502 34.0786ZM419.135 34.0786C419.135 29.4347 420.98 24.9809 424.264 21.6971C427.548 18.4133 432.001 16.5684 436.645 16.5684C441.289 16.5684 445.743 18.4133 449.027 21.6971C452.311 24.9809 454.156 29.4347 454.156 34.0786C454.156 38.7226 452.311 43.1764 449.027 46.4602C445.743 49.744 441.289 51.5888 436.645 51.5888C432.001 51.5888 427.548 49.744 424.264 46.4602C420.98 43.1764 419.135 38.7226 419.135 34.0786ZM264.237 78.9766C264.103 75.4879 265.015 72.0386 266.855 69.0719C268.696 66.1051 271.381 63.7564 274.567 62.3272C277.752 60.898 281.292 60.4537 284.732 61.0514C288.172 61.649 291.354 63.2613 293.871 65.6812C296.388 68.1011 298.123 71.218 298.855 74.6318C299.587 78.0455 299.282 81.6001 297.979 84.8391C296.676 88.0781 294.434 90.8536 291.542 92.8091C288.65 94.7645 285.239 95.8108 281.747 95.8133C279.459 95.8431 277.187 95.4179 275.063 94.5625C272.94 93.7072 271.008 92.4386 269.379 90.8305C267.75 89.2224 266.457 87.3068 265.574 85.1948C264.691 83.0829 264.237 80.8166 264.237 78.5276V78.9766ZM315.87 78.9766C315.736 75.4879 316.647 72.0386 318.488 69.0719C320.328 66.1051 323.014 63.7564 326.199 62.3272C329.385 60.898 332.925 60.4537 336.364 61.0514C339.804 61.649 342.987 63.2613 345.504 65.6812C348.02 68.1011 349.756 71.218 350.488 74.6318C351.22 78.0455 350.915 81.6001 349.612 84.8391C348.309 88.0781 346.067 90.8536 343.175 92.8091C340.282 94.7645 336.871 95.8108 333.38 95.8133C331.017 95.9671 328.648 95.6338 326.42 94.8343C324.191 94.0347 322.151 92.7858 320.425 91.1651C318.699 89.5444 317.324 87.5864 316.386 85.4125C315.448 83.2386 314.967 80.8952 314.972 78.5276L315.87 78.9766ZM367.502 78.9766C367.368 75.4879 368.28 72.0386 370.12 69.0719C371.961 66.1051 374.647 63.7564 377.832 62.3272C381.017 60.898 384.557 60.4537 387.997 61.0514C391.437 61.649 394.62 63.2613 397.136 65.6812C399.653 68.1011 401.389 71.218 402.121 74.6318C402.853 78.0455 402.548 81.6001 401.244 84.8391C399.941 88.0781 397.699 90.8536 394.807 92.8091C391.915 94.7645 388.504 95.8108 385.013 95.8133C382.724 95.8431 380.452 95.4179 378.329 94.5625C376.206 93.7072 374.273 92.4386 372.644 90.8305C371.015 89.2224 369.722 87.3068 368.839 85.1948C367.957 83.0829 367.502 80.8166 367.502 78.5276V78.9766ZM419.135 78.9766C419.001 75.4879 419.913 72.0386 421.753 69.0719C423.594 66.1051 426.279 63.7564 429.465 62.3272C432.65 60.898 436.19 60.4537 439.63 61.0514C443.07 61.649 446.252 63.2613 448.769 65.6812C451.285 68.1011 453.021 71.218 453.753 74.6318C454.485 78.0455 454.18 81.6001 452.877 84.8391C451.574 88.0781 449.332 90.8536 446.44 92.8091C443.548 94.7645 440.137 95.8108 436.645 95.8133C434.357 95.8431 432.085 95.4179 429.961 94.5625C427.838 93.7072 425.906 92.4386 424.277 90.8305C422.648 89.2224 421.355 87.3068 420.472 85.1948C419.589 83.0829 419.135 80.8166 419.135 78.5276V78.9766Z" fill="#9BB9CA"/>
<path d="M229.888 0.629669H0.683594V110.63H229.888V0.629669ZM19.5407 92.6705V18.5889H32.1122V92.6705H19.5407ZM45.5816 92.6705V18.5889H58.153V92.6705H45.5816ZM71.1734 92.6705V18.5889H83.7448V92.6705H71.1734ZM96.5407 92.6705V18.5889H109.337V92.6705H96.5407ZM122.133 92.6705V18.5889H135.377V92.6705H122.133ZM147.724 92.6705V18.5889H160.296V92.6705H147.724ZM173.316 92.6705V18.5889H185.888V92.6705H173.316ZM198.684 92.6705V18.5889H211.48V92.6705H198.684Z" fill="#9BB9CA"/>
</svg>
