<svg width="16" height="16" viewBox="0 0 16 16" fill="none" xmlns="http://www.w3.org/2000/svg">
<path d="M8 1.44144C10.1361 1.44144 10.3891 1.44959 11.2327 1.48807C12.0127 1.52366 12.4363 1.65398 12.7182 1.76353C13.0916 1.90865 13.3581 2.08202 13.638 2.36197C13.918 2.64191 14.0913 2.90841 14.2365 3.28183C14.346 3.56373 14.4763 3.98734 14.5119 4.76732C14.5504 5.6109 14.5586 5.86391 14.5586 8.00001C14.5586 10.1361 14.5504 10.3891 14.5119 11.2327C14.4763 12.0127 14.346 12.4363 14.2365 12.7182C14.0913 13.0916 13.918 13.3581 13.638 13.638C13.3581 13.918 13.0916 14.0914 12.7182 14.2365C12.4363 14.346 12.0127 14.4764 11.2327 14.5119C10.3892 14.5504 10.1362 14.5586 8 14.5586C5.86376 14.5586 5.61077 14.5504 4.76731 14.5119C3.98733 14.4764 3.56373 14.346 3.28183 14.2365C2.90841 14.0914 2.64191 13.918 2.36198 13.638C2.08203 13.3581 1.90865 13.0916 1.76353 12.7182C1.65398 12.4363 1.52366 12.0127 1.48807 11.2327C1.44958 10.3891 1.44144 10.1361 1.44144 8.00001C1.44144 5.86392 1.44959 5.6109 1.48807 4.76733C1.52366 3.98734 1.65398 3.56374 1.76353 3.28183C1.90866 2.90841 2.08203 2.64192 2.36197 2.36198C2.64192 2.08203 2.90841 1.90866 3.28183 1.76354C3.56373 1.65399 3.98734 1.52367 4.7673 1.48808C5.61089 1.44959 5.86391 1.44144 8 1.44144ZM8 -2.31759e-07C5.82733 -2.31759e-07 5.55489 0.00919975 4.70161 0.0481369C3.85009 0.0869826 3.26857 0.222229 2.75969 0.419989C2.23362 0.624434 1.78747 0.897978 1.34272 1.34272C0.897977 1.78747 0.624434 2.23362 0.419988 2.75969C0.222217 3.26857 0.0869828 3.85009 0.0481257 4.70162C0.00919996 5.55489 0 5.82733 0 8C0 10.1727 0.00919998 10.4451 0.0481371 11.2984C0.0869943 12.1499 0.222228 12.7314 0.42 13.2403C0.624446 13.7664 0.897977 14.2125 1.34273 14.6573C1.78749 15.102 2.23363 15.3756 2.7597 15.58C3.26858 15.7778 3.8501 15.913 4.70163 15.9519C5.55491 15.9908 5.82735 16 8.00002 16C10.1727 16 10.4451 15.9908 11.2984 15.9519C12.1499 15.913 12.7315 15.7778 13.2403 15.58C13.7664 15.3756 14.2125 15.102 14.6573 14.6573C15.1021 14.2125 15.3756 13.7664 15.58 13.2403C15.7778 12.7314 15.913 12.1499 15.9519 11.2984C15.9908 10.4451 16 10.1727 16 8C16 5.82733 15.9908 5.55489 15.9519 4.70161C15.913 3.85009 15.7778 3.26856 15.58 2.75968C15.3756 2.23361 15.102 1.78746 14.6573 1.34271C14.2125 0.897966 13.7664 0.624423 13.2403 0.419977C12.7314 0.222206 12.1499 0.0869717 11.2984 0.0481146C10.4451 0.00920026 10.1727 -2.31759e-07 8 -2.31759e-07Z" fill="white"/>
<path d="M7.99775 3.8916C5.72891 3.8916 3.88965 5.73086 3.88965 7.99971C3.88965 10.2686 5.72891 12.1078 7.99775 12.1078C10.2666 12.1078 12.1059 10.2686 12.1059 7.99971C12.1059 5.73086 10.2666 3.8916 7.99775 3.8916ZM7.99775 10.6664C6.525 10.6664 5.33109 9.47246 5.33109 7.99971C5.33109 6.52695 6.525 5.33304 7.99775 5.33304C9.47051 5.33304 10.6644 6.52695 10.6644 7.99971C10.6644 9.47246 9.47051 10.6664 7.99775 10.6664Z" fill="white"/>
<path d="M12.2725 4.69026C12.8027 4.69026 13.2325 4.26046 13.2325 3.73026C13.2325 3.20007 12.8027 2.77026 12.2725 2.77026C11.7423 2.77026 11.3125 3.20007 11.3125 3.73026C11.3125 4.26046 11.7423 4.69026 12.2725 4.69026Z" fill="white"/>
</svg>
