<svg width="96" height="15" viewBox="0 0 96 15" fill="none" xmlns="http://www.w3.org/2000/svg">
<g clip-path="url(#clip0)">
<path d="M13.719 2.93201C14.0644 3.38453 14.3568 3.87617 14.5902 4.39703L7.96751 9.34469L5.19971 7.58632V5.47092L7.96751 7.22929L13.719 2.93201Z" fill="#21A038"/>
<path d="M2.37496 7.43707C2.37496 7.34215 2.37725 7.24785 2.38182 7.1541L0.704448 7.0708C0.698739 7.19231 0.695315 7.31498 0.695315 7.43878C0.694601 8.40613 0.882347 9.36407 1.24779 10.2577C1.61322 11.1513 2.14916 11.963 2.82485 12.6462L4.01465 11.441C3.49453 10.916 3.08191 10.292 2.80052 9.60487C2.51912 8.91774 2.3745 8.18101 2.37496 7.43707Z" fill="url(#paint0_linear)"/>
<path d="M7.96587 1.77093C8.05949 1.77093 8.15252 1.7744 8.24501 1.77903L8.32895 0.0785084C8.2087 0.0727224 8.08765 0.0698297 7.96587 0.0698297C7.01091 0.0686495 6.06519 0.258647 5.18292 0.628913C4.30065 0.99918 3.49924 1.54242 2.82471 2.22745L4.01451 3.43326C4.53255 2.90596 5.14834 2.48765 5.82646 2.20236C6.50458 1.91708 7.23162 1.77046 7.96587 1.77093Z" fill="url(#paint1_linear)"/>
<path d="M7.96571 13.1034C7.87209 13.1034 7.77901 13.1034 7.68598 13.0959L7.60205 14.7958C7.7227 14.802 7.84393 14.8051 7.96571 14.8051C8.92027 14.8061 9.86554 14.616 10.7473 14.2456C11.6291 13.8752 12.43 13.3319 13.104 12.6469L11.9165 11.4417C11.3984 11.9687 10.7827 12.3867 10.1047 12.6719C9.42669 12.9571 8.69978 13.1037 7.96571 13.1034Z" fill="url(#paint2_linear)"/>
<path d="M11.1172 2.75961L12.5308 1.70366C11.2387 0.643344 9.62592 0.0661485 7.96338 0.0691031V1.77078C9.08918 1.76936 10.1888 2.11416 11.1172 2.75961Z" fill="url(#paint3_linear)"/>
<path d="M15.2362 7.43708C15.2371 6.9944 15.1989 6.55248 15.122 6.1167L13.5571 7.28548C13.5571 7.33584 13.5571 7.38617 13.5571 7.43708C13.5575 8.22877 13.3938 9.01172 13.0765 9.73517C12.7592 10.4586 12.2955 11.1064 11.7153 11.6366L12.8441 12.9009C13.5983 12.2108 14.201 11.3678 14.6131 10.4266C15.0252 9.48535 15.2375 8.46682 15.2362 7.43708Z" fill="#21A038"/>
<path d="M7.96592 13.1034C7.18468 13.1037 6.41209 12.9377 5.69815 12.6161C4.98426 12.2946 4.34493 11.8247 3.8216 11.2368L2.57471 12.3801C3.25551 13.1446 4.08725 13.7555 5.01601 14.1733C5.94477 14.591 6.94978 14.8063 7.96592 14.8051V13.1034Z" fill="url(#paint4_linear)"/>
<path d="M4.21676 3.23752L3.08862 1.97327C2.33419 2.66318 1.73127 3.5061 1.31896 4.44736C0.906665 5.3886 0.694188 6.40718 0.695317 7.43702H2.37497C2.37462 6.64537 2.5384 5.86241 2.85567 5.13897C3.17296 4.41555 3.63667 3.76774 4.21676 3.23752Z" fill="url(#paint5_linear)"/>
<path d="M42.652 4.28271L44.7322 2.74707H37.77V11.9749H44.7322V10.4393H39.7566V8.07556H44.001V6.53993H39.7566V4.28271H42.652Z" fill="#21A038"/>
<path d="M33.0856 6.34183H30.6685V4.28201H34.5262L36.6052 2.7417H28.6831V11.9696H32.83C35.1549 11.9696 36.4892 10.9137 36.4892 9.07237C36.4892 7.3108 35.2807 6.34183 33.0856 6.34183ZM32.7406 10.4334H30.6685V7.87652H32.7406C33.998 7.87652 34.5876 8.30501 34.5876 9.155C34.5876 10.0049 33.9603 10.4334 32.7406 10.4334Z" fill="#21A038"/>
<path d="M49.8498 2.74573H46.0601V11.9736H48.0464V9.35947H49.8498C52.2677 9.35947 53.7635 8.08464 53.7635 6.04767C53.7635 4.01076 52.2677 2.74573 49.8498 2.74573ZM49.8079 7.82266H48.0464V4.28254H49.8079C51.0797 4.28254 51.7816 4.91156 51.7816 6.0533C51.7816 7.19505 51.0797 7.82266 49.8079 7.82266Z" fill="#21A038"/>
<path d="M25.702 9.79582C25.1889 10.0742 24.614 10.2184 24.0305 10.215C22.2841 10.215 21.0172 8.96575 21.0172 7.24554C21.0172 5.52528 22.2841 4.27333 24.0305 4.27333C24.6603 4.26261 25.277 4.45396 25.7905 4.81945L27.18 3.79412L27.0861 3.72722C26.2755 3.01319 25.1925 2.63501 23.9529 2.63501C22.6083 2.63501 21.3891 3.08828 20.5186 3.9129C20.0785 4.33748 19.7304 4.84842 19.496 5.41382C19.2616 5.97922 19.146 6.58692 19.1564 7.19909C19.1471 7.81747 19.2622 8.43139 19.4948 9.00422C19.7275 9.57705 20.0729 10.097 20.5105 10.5331C21.385 11.3905 22.6015 11.8628 23.9365 11.8628C25.3315 11.8628 26.5507 11.3754 27.3762 10.488L26.1325 9.55966L25.702 9.79582Z" fill="#21A038"/>
<path d="M61.6402 6.34183H59.2241V4.28201H64.4163V2.7417H57.2373V11.9696H61.3789C63.7036 11.9696 65.038 10.9137 65.038 9.07237C65.0434 7.3108 63.8351 6.34183 61.6402 6.34183ZM61.2951 10.4334H59.2241V7.87652H61.2951C62.5525 7.87652 63.1418 8.30501 63.1418 9.155C63.1418 10.0049 62.5201 10.4334 61.2951 10.4334Z" fill="#21A038"/>
<path d="M87.6212 11.9564H85.6074V2.72852H87.6212V6.60427H88.7173L91.6772 2.72852H93.9596L90.4487 7.11832L94.5254 11.9564H91.8534L88.857 8.32714H87.6212V11.9564Z" fill="#21A038"/>
<path d="M72.3544 10.2028H68.0943L67.3721 11.9947H65.229L69.2247 2.76685H71.3673L75.2981 11.9947H73.0766L72.3544 10.2028ZM71.6872 8.53074L70.237 4.94683L68.7786 8.53074H71.6872Z" fill="#21A038"/>
<path d="M78.0091 2.76685V6.62023H82.1763V2.76685H84.2528V11.9947H82.1763V8.3586H78.0091V11.9947H75.9326V2.76685H78.0091Z" fill="#21A038"/>
</g>
<defs>
<linearGradient id="paint0_linear" x1="3.16455" y1="12.4339" x2="1.28533" y2="7.07359" gradientUnits="userSpaceOnUse">
<stop offset="0.14" stop-color="#F1E813"/>
<stop offset="0.3" stop-color="#E6E418"/>
<stop offset="0.58" stop-color="#C9DA26"/>
<stop offset="0.89" stop-color="#A2CC39"/>
</linearGradient>
<linearGradient id="paint1_linear" x1="3.30428" y1="2.52832" x2="8.04679" y2="0.745016" gradientUnits="userSpaceOnUse">
<stop offset="0.06" stop-color="#0FA7DF"/>
<stop offset="0.54" stop-color="#0098F8"/>
<stop offset="0.92" stop-color="#0290EA"/>
</linearGradient>
<linearGradient id="paint2_linear" x1="7.49131" y1="13.778" x2="12.8431" y2="12.5851" gradientUnits="userSpaceOnUse">
<stop offset="0.12" stop-color="#A2CC39"/>
<stop offset="0.28" stop-color="#86C239"/>
<stop offset="0.87" stop-color="#219F38"/>
</linearGradient>
<linearGradient id="paint3_linear" x1="7.614" y1="0.639028" x2="12.1941" y2="2.03368" gradientUnits="userSpaceOnUse">
<stop offset="0.06" stop-color="#0290EA"/>
<stop offset="0.79" stop-color="#0C89CA"/>
</linearGradient>
<linearGradient id="paint4_linear" x1="2.99604" y1="12.173" x2="7.98606" y2="14.0132" gradientUnits="userSpaceOnUse">
<stop offset="0.13" stop-color="#F1E813"/>
<stop offset="0.3" stop-color="#EAE616"/>
<stop offset="0.53" stop-color="#D8DF1F"/>
<stop offset="0.8" stop-color="#BAD52D"/>
<stop offset="0.98" stop-color="#A2CC39"/>
</linearGradient>
<linearGradient id="paint5_linear" x1="1.32105" y1="7.64299" x2="3.36453" y2="2.39775" gradientUnits="userSpaceOnUse">
<stop offset="0.07" stop-color="#A2CC39"/>
<stop offset="0.26" stop-color="#81C45E"/>
<stop offset="0.92" stop-color="#0FA7DF"/>
</linearGradient>
<clipPath id="clip0">
<rect width="94.6087" height="14.8671" fill="white" transform="translate(0.695312 0.0690918)"/>
</clipPath>
</defs>
</svg>
