<svg width="96" height="24" viewBox="0 0 96 24" fill="none" xmlns="http://www.w3.org/2000/svg">
<g clip-path="url(#clip0)">
<path d="M32.7304 12.3213H30.123V10.7139H37.2363V12.3213H34.629V16.7513H32.7304V12.3213Z" fill="#222220"/>
<path d="M44.5269 10.7139V16.7513H42.6916V13.2326L39.5273 16.7513H37.9072V10.7392H39.7425V14.2199L42.9068 10.7139H44.5269Z" fill="#222220"/>
<path d="M47.6878 16.7513H45.8525V10.7391H47.6878V12.9541H50.6369V10.7391H52.4722V16.7513H50.6369V14.4983H47.6878V16.7513Z" fill="#222220"/>
<path d="M53.7983 16.7513V10.7391H55.6336V12.3213H57.5322C57.9856 12.2978 58.4396 12.3535 58.8738 12.4858C59.2907 12.6266 59.6507 12.8989 59.8995 13.2619C60.1483 13.6248 60.2725 14.0587 60.2535 14.4983C60.2694 14.9751 60.1209 15.4429 59.8328 15.8231C59.5447 16.2034 59.1346 16.473 58.6713 16.5867C58.2958 16.6867 57.9081 16.7335 57.5195 16.7259L53.7983 16.7513ZM55.6336 15.2957H57.2158C57.4598 15.3177 57.7057 15.2875 57.9372 15.2071C58.0773 15.1494 58.1968 15.051 58.2803 14.9247C58.3638 14.7983 58.4074 14.6498 58.4055 14.4983C58.4082 14.3511 58.3627 14.2071 58.2758 14.0883C58.189 13.9694 58.0656 13.8823 57.9246 13.8401C57.6942 13.7753 57.4546 13.7497 57.2158 13.7642H55.6336V15.2957Z" fill="#222220"/>
<path d="M62.9178 16.7513H61.0825V10.7391H62.9178V13.0048H63.4241L65.6391 10.7391H67.9427L65.0062 13.587L68.0566 16.7513H65.6138L63.4241 14.473H62.9178V16.7513Z" fill="#222220"/>
<path d="M75.8156 13.7389C75.8156 15.5362 74.3347 16.9285 71.8792 16.9285C69.4237 16.9285 67.9302 15.5362 67.9302 13.7389C67.9302 11.9416 69.4111 10.5493 71.8919 10.5493C74.3727 10.5493 75.8156 11.9416 75.8156 13.7389ZM73.8917 13.7389C73.8917 12.7517 73.0943 12.0302 71.8792 12.0302C70.6641 12.0302 69.8667 12.7517 69.8667 13.7389C69.8667 14.7262 70.6515 15.4603 71.8792 15.4603C73.1069 15.4603 73.8917 14.7262 73.8917 13.7389Z" fill="#222220"/>
<path d="M85.5581 13.7263C85.5581 15.4477 84.1785 16.3463 81.8623 16.397V17.0045H80.027V16.397C77.7234 16.3463 76.3438 15.4477 76.3438 13.7263C76.3438 12.005 77.7234 11.0304 80.027 10.9797V10.3722H81.8623V10.9797C84.1817 11.0304 85.5581 12.005 85.5581 13.7263ZM80.027 12.2834C78.7613 12.334 78.2043 12.9163 78.2043 13.7263C78.2043 14.5364 78.7613 15.0553 80.027 15.1059V12.2834ZM83.6849 13.7263C83.6849 12.9163 83.1406 12.334 81.8623 12.2834V15.1059C83.1438 15.0553 83.688 14.5364 83.688 13.7263H83.6849Z" fill="#222220"/>
<path d="M95.3071 13.7263C95.3071 15.4477 93.9275 16.3463 91.6113 16.397V17.0045H89.776V16.397C87.4724 16.3463 86.0928 15.4477 86.0928 13.7263C86.0928 12.005 87.4724 11.0304 89.776 10.9797V10.3722H91.6113V10.9797C93.9275 11.0304 95.3071 12.005 95.3071 13.7263ZM89.776 12.2834C88.5103 12.334 87.9534 12.9163 87.9534 13.7263C87.9534 14.5364 88.5103 15.0553 89.776 15.1059V12.2834ZM93.4339 13.7263C93.4339 12.9163 92.8896 12.334 91.6113 12.2834V15.1059C92.8896 15.0553 93.4307 14.5364 93.4307 13.7263H93.4339Z" fill="#222220"/>
<path d="M25.9874 11.6347L26.3259 10.5715L25.2248 10.6063C24.7089 10.5858 24.2108 10.4117 23.7945 10.1063C23.8452 10.1063 23.8926 10.1063 23.9433 10.1063C24.2727 10.1051 24.5952 10.0121 24.8747 9.83768C25.1542 9.66329 25.3795 9.41444 25.5254 9.11908L26.0095 8.08436C25.6298 8.08754 25.2503 8.06534 24.8735 8.01791C24.5134 7.93317 24.189 7.73722 23.9464 7.45784C23.784 7.28461 23.588 7.14621 23.3704 7.05102C23.1528 6.95583 22.9182 6.90584 22.6807 6.90409C22.4927 6.90498 22.3059 6.93486 22.127 6.99269C22.1537 6.90767 22.1748 6.821 22.1902 6.73322C22.2647 6.1154 22.0918 5.49321 21.7093 5.00236L20.8739 3.97397L20.3613 5.17639C20.2799 5.34847 20.1543 5.49588 19.9974 5.60357C19.9102 5.1746 19.699 4.78068 19.3899 4.47076C19.133 4.2078 18.8258 3.99939 18.4865 3.85803C18.1472 3.71666 17.7829 3.64524 17.4153 3.64805C17.2861 3.64742 17.157 3.65694 17.0293 3.67652L16.0294 3.87271C16.1159 3.53771 16.2524 3.21768 16.4344 2.92343L16.985 2.06591L15.5991 2.19564L15.1561 1.24636L14.3017 1.71151L13.5106 0.929932L12.7196 1.71151L11.8652 1.26851L11.4222 2.19564L10.0363 2.03743L10.5868 2.89811C10.7694 3.19205 10.906 3.51218 10.9919 3.8474L10.0426 3.6607H10.0109C9.879 3.64072 9.74569 3.63119 9.61224 3.63222C9.24467 3.62923 8.88029 3.70057 8.54098 3.84195C8.20167 3.98333 7.89443 4.19183 7.63773 4.45494C7.32373 4.76846 7.11004 5.16829 7.02386 5.60357C6.87044 5.49909 6.74714 5.35615 6.6663 5.18905L6.15052 3.97713L5.30883 5.00869C4.93287 5.50009 4.7637 6.11889 4.83735 6.73322C4.853 6.82094 4.87414 6.9076 4.90064 6.99269C4.72179 6.93451 4.53496 6.90462 4.34689 6.90409C4.10941 6.90584 3.87476 6.95583 3.65718 7.05102C3.4396 7.14621 3.24364 7.28461 3.08118 7.45784C2.83987 7.73409 2.51955 7.9296 2.16354 8.01791C1.78235 8.07435 1.39689 8.09659 1.01174 8.08436L1.48322 9.1349C1.62939 9.43003 1.85479 9.67868 2.1342 9.85303C2.41361 10.0274 2.73601 10.1206 3.06536 10.1222C3.11598 10.1222 3.16345 10.1222 3.21408 10.1222C2.80264 10.4227 2.31181 10.5955 1.80281 10.6189L0.695312 10.5715L1.03389 11.6347C1.15772 12.0429 1.39678 12.4066 1.72235 12.6822C2.04791 12.9578 2.44614 13.1336 2.86917 13.1883C2.8254 13.4645 2.71646 13.7262 2.55137 13.9518C2.38629 14.1774 2.16981 14.3604 1.91989 14.4857L1.07186 14.8306L1.52752 15.6248C1.71214 15.9121 1.9666 16.1478 2.26709 16.3099C2.56758 16.4721 2.90429 16.5553 3.24572 16.552C3.42651 16.5516 3.60678 16.5325 3.78365 16.495C3.82895 16.6885 3.88387 16.8797 3.94819 17.0677C4.10535 17.4841 4.11651 17.9415 3.97983 18.3651L3.56848 19.229L4.48928 19.4726C4.69617 19.5249 4.90873 19.5515 5.12213 19.5517C5.27337 19.5524 5.42417 19.5354 5.57146 19.5011C5.67941 19.477 5.78523 19.4442 5.88789 19.403C6.00652 19.615 6.15225 19.8108 6.3214 19.9852C6.90995 20.5896 7.74532 20.8965 8.80535 20.8965H9.56161L8.00163 21.5452L9.18507 22.1306C9.66132 22.3662 10.1492 22.5774 10.647 22.7634L10.5046 23.1748L10.9128 23.3615C11.5904 23.6277 12.3084 23.7764 13.036 23.8013C13.036 23.8013 13.3524 23.8013 13.5233 23.8013C13.6942 23.8013 14.0074 23.8013 14.0074 23.8013C14.732 23.7745 15.4468 23.6247 16.1212 23.3583L16.5167 23.1748L16.3775 22.7634C16.8809 22.5704 17.3741 22.3518 17.8552 22.1084L19.0165 21.5452L17.4596 20.9123H18.2191C19.2791 20.9123 20.1176 20.5959 20.703 20.001C20.8724 19.8268 21.0182 19.631 21.1365 19.4188C21.2393 19.4596 21.3451 19.4924 21.453 19.5169C21.6003 19.551 21.7511 19.568 21.9023 19.5675C22.1157 19.5669 22.3282 19.5404 22.5351 19.4884L23.4591 19.2448L23.0573 18.3967C22.9067 17.9656 22.9123 17.4952 23.0731 17.0677C23.1395 16.8747 23.1933 16.6785 23.2376 16.4824C23.4155 16.5198 23.5969 16.5389 23.7787 16.5393C24.123 16.5421 24.4622 16.4562 24.7636 16.29C25.0651 16.1237 25.3187 15.8827 25.5001 15.59L25.9494 14.8053L25.114 14.4635C24.8638 14.3387 24.6471 14.1558 24.4819 13.9301C24.3168 13.7044 24.208 13.4425 24.1647 13.1662C24.5882 13.1112 24.9867 12.935 25.3123 12.6588C25.6379 12.3826 25.8767 12.0181 26 11.6094L25.9874 11.6347Z" fill="white"/>
<path d="M13.5105 4.18909C12.6277 4.18909 11.9632 4.4802 11.8208 4.82194L13.5105 5.4896L15.2002 4.82194C15.0579 4.4802 14.3934 4.18909 13.5105 4.18909Z" fill="white"/>
<path d="M13.5294 21.8522H13.4946C12.945 21.8475 12.3979 21.7774 11.865 21.6433L11.4536 22.7983C12.1286 22.9868 12.8254 23.0857 13.5262 23.0926C14.227 23.0858 14.9238 22.9869 15.5988 22.7983L15.1558 21.6433C14.6228 21.7772 14.0758 21.8473 13.5262 21.8522" fill="white"/>
<path d="M16.7637 20.7035C16.2995 20.935 15.8168 21.1276 15.3208 21.2794L15.6689 22.2287C16.221 22.0827 16.7573 21.8823 17.27 21.6306L16.5517 21.3901L16.7637 20.7035Z" fill="white"/>
<path d="M10.2575 20.7035L10.4695 21.3996L9.74805 21.6401C10.2608 21.8916 10.7971 22.0919 11.3492 22.2382L11.6972 21.2889C11.2012 21.137 10.7186 20.9444 10.2543 20.713" fill="white"/>
<path d="M13.5108 3.08476C14.1454 3.07791 14.7717 3.22906 15.3334 3.52459C15.3873 3.3413 15.4528 3.16162 15.5296 2.98666L15.3397 3.00881L15.1404 3.03096L15.0549 2.8506L14.8018 2.31267L14.3398 2.55316L14.1594 2.64492L14.0139 2.51202L13.5108 2.00574L13.0076 2.51202L12.8652 2.65441L12.6849 2.56265L12.2197 2.32216L11.9698 2.86009L11.8843 3.04046L11.685 3.01831L11.4951 2.99616C11.5715 3.17125 11.6371 3.3509 11.6913 3.53408C12.2512 3.23602 12.8764 3.08163 13.5108 3.08476Z" fill="white"/>
<path d="M23.6839 9.28682C23.7683 9.31633 23.8571 9.33131 23.9466 9.33112C24.1246 9.32976 24.299 9.28058 24.4515 9.18874C24.604 9.09689 24.7291 8.96574 24.8136 8.80902C24.258 8.71662 23.7516 8.43489 23.3801 8.01162C23.2917 7.9127 23.1835 7.83344 23.0625 7.77893C22.9415 7.72443 22.8104 7.6959 22.6777 7.69519C22.4698 7.69848 22.2671 7.75986 22.0923 7.87239C22.9909 8.3502 23.1745 9.11595 23.6744 9.28999" fill="white"/>
<path d="M3.07795 9.33111C3.16633 9.33125 3.25409 9.31626 3.33742 9.28681C3.85003 9.11278 4.03356 8.33753 4.91956 7.86922C4.74569 7.75725 4.54409 7.69589 4.33733 7.69202C4.20463 7.69273 4.07355 7.72126 3.95255 7.77576C3.83155 7.83026 3.72333 7.90953 3.63486 8.00844C3.26632 8.431 2.76347 8.71371 2.21094 8.80901C2.29515 8.96595 2.42014 9.09728 2.57272 9.18917C2.7253 9.28105 2.89984 9.33009 3.07795 9.33111Z" fill="white"/>
<path d="M23.9272 12.4035H23.9715C24.9207 12.4035 25.2372 11.3973 25.2372 11.3973H25.2182C24.7222 11.3819 24.2356 11.2584 23.7924 11.0354C23.3491 10.8124 22.9599 10.4953 22.652 10.1063C22.0001 9.28041 21.4685 8.55262 20.4148 8.26784L20.3136 8.24252L20.2914 8.1381C20.2629 7.97672 20.3737 7.82167 20.6078 7.66346C22.0602 6.71418 21.073 5.49909 21.073 5.49909C21.073 5.49909 20.6711 6.46736 19.744 6.46736H19.6807C19.5745 6.4654 19.4687 6.45481 19.3643 6.43572L19.1934 6.40408C19.2637 6.16149 19.2661 5.90426 19.2002 5.66043C19.1344 5.4166 19.0029 5.19552 18.82 5.02129C18.6376 4.83373 18.4191 4.68515 18.1776 4.58453C17.9361 4.4839 17.6767 4.43334 17.4151 4.4359C17.3218 4.4348 17.2286 4.44221 17.1366 4.45805C17.4531 4.8789 17.6904 5.57504 17.3202 6.00221C17.0037 6.37244 16.2158 6.38826 16.2158 6.9515C16.2158 7.18565 16.4342 7.45778 16.8234 7.70143C18.0005 8.44187 19.1681 9.42596 19.6522 10.7423C20.2598 12.3846 19.5763 13.4762 18.5985 14.0996C18.8108 14.2784 19.0722 14.3888 19.3485 14.416C19.4402 14.416 19.5257 14.416 19.6079 14.416C20.118 14.4375 20.6199 14.2822 21.0287 13.9762C20.9478 14.41 20.7522 14.8143 20.4623 15.147C20.2234 15.4243 19.9247 15.6438 19.5888 15.7891C19.2528 15.9343 18.8883 16.0015 18.5226 15.9855C18.5251 16.1342 18.5595 16.2806 18.6233 16.4148C18.6872 16.5491 18.7791 16.6681 18.8928 16.7639C19.146 16.9336 19.4353 17.0419 19.7377 17.0803C19.7377 17.0803 18.6333 17.305 18.5131 18.9346C18.5163 19.3492 18.4163 19.7581 18.222 20.1244H18.241C20.8009 20.1244 20.7344 17.9284 20.7344 17.9284C20.8007 18.1299 20.9175 18.311 21.0737 18.4545C21.2299 18.598 21.4203 18.699 21.6267 18.7479C21.7137 18.7696 21.803 18.7802 21.8925 18.7796C22.0376 18.7786 22.182 18.7605 22.3229 18.7258C22.0921 18.114 22.0921 17.439 22.3229 16.8272C22.5038 16.3197 22.5917 15.7838 22.5823 15.2451C22.7291 15.4207 22.9155 15.5588 23.1263 15.6479C23.3371 15.7371 23.5661 15.7747 23.7943 15.7577C23.9964 15.7607 24.196 15.7127 24.3746 15.6181C24.5533 15.5235 24.7052 15.3854 24.8163 15.2166C23.1108 14.5078 23.2785 12.22 23.2785 12.22C23.4755 12.3406 23.7025 12.4031 23.9335 12.4004L23.9272 12.4035ZM23.4209 14.7894C22.7279 14.4477 22.2881 13.5237 22.1805 13.2073C22.0666 15.0109 21.1869 16.2608 20.1585 17.4632C19.8435 17.8251 19.5988 18.2425 19.4371 18.6941C19.5212 18.2426 19.7134 17.8181 19.9971 17.4569C20.9464 16.3051 21.8704 14.8685 21.9368 13.2104C21.9894 12.2039 21.7404 11.2046 21.2217 10.3404C21.3836 10.8085 21.4076 11.3132 21.2909 11.7945C21.1742 12.2758 20.9218 12.7134 20.5635 13.0554C20.5635 13.0554 22.3197 10.948 19.8642 8.78994C18.8801 7.96723 17.8043 7.46095 17.2505 7.10022C19.2504 7.75206 20.2281 7.03377 20.2281 7.03377C19.9512 7.24985 19.6307 7.40333 19.2887 7.48364C18.9468 7.56394 18.5915 7.56915 18.2473 7.49892C18.3865 7.56537 18.5321 7.63815 18.6871 7.72042C20.3737 8.63806 21.8925 10.1443 22.1488 12.2327V12.2169C22.5412 14.2673 23.4145 14.7926 23.4145 14.7926" fill="white"/>
<path d="M7.2832 17.0678C7.58558 17.0294 7.87485 16.921 8.12806 16.7514C8.24178 16.6556 8.33366 16.5365 8.39752 16.4023C8.46138 16.268 8.49574 16.1216 8.49828 15.9729C8.13217 15.9887 7.76724 15.9215 7.43079 15.7763C7.09434 15.631 6.79509 15.4116 6.55542 15.1344C6.26726 14.801 6.07288 14.3969 5.99218 13.9636C6.40092 14.2696 6.90281 14.425 7.41294 14.4035C7.49837 14.4035 7.58381 14.4035 7.67557 14.4035C7.95168 14.3758 8.21304 14.2655 8.42551 14.087C7.44775 13.4542 6.76426 12.372 7.3718 10.7297C7.8591 9.4134 9.02355 8.42931 10.2007 7.68887C10.5899 7.44839 10.8209 7.17626 10.8209 6.9421C10.8209 6.39152 10.0393 6.37253 9.7197 5.99282C9.34947 5.56248 9.58047 4.86634 9.90006 4.44865C9.80811 4.43279 9.7149 4.42537 9.6216 4.4265C9.36 4.42395 9.1006 4.47451 8.85911 4.57513C8.61761 4.67575 8.39906 4.82434 8.21666 5.0119C8.03382 5.18613 7.90231 5.40721 7.83647 5.65104C7.77063 5.89487 7.77298 6.1521 7.84328 6.39468L7.65659 6.43582C7.5521 6.45462 7.4463 6.4652 7.34016 6.46746H7.27371C6.34341 6.46746 5.92889 5.49603 5.92889 5.49603C5.92889 5.49603 4.95113 6.71111 6.39088 7.66356C6.64085 7.82494 6.7516 7.97999 6.7073 8.1382L6.68515 8.24262L6.58073 8.26161C5.53019 8.54639 4.9986 9.27418 4.34359 10.1001C4.03706 10.4896 3.64917 10.8075 3.20701 11.0316C2.76485 11.2557 2.2791 11.3805 1.78369 11.3974H1.79002C1.79002 11.3974 2.10645 12.4036 3.05573 12.4036H3.10003C3.33096 12.4062 3.55794 12.3437 3.75504 12.2233C3.75504 12.2233 3.92274 14.5111 2.2172 15.2199C2.32755 15.3863 2.47761 15.5226 2.65384 15.6165C2.83007 15.7104 3.02691 15.759 3.2266 15.7578C3.45379 15.7712 3.68093 15.7307 3.88939 15.6393C4.09786 15.548 4.28171 15.4086 4.42586 15.2325C4.41579 15.771 4.5026 16.3069 4.68217 16.8146C4.91209 17.4266 4.91209 18.1012 4.68217 18.7132C4.82197 18.7478 4.96534 18.7658 5.10935 18.767C5.19893 18.7678 5.28826 18.7572 5.37514 18.7354C5.58142 18.6862 5.77168 18.585 5.92786 18.4416C6.08404 18.2982 6.20095 18.1172 6.26747 17.9158C6.26747 17.9158 6.20102 20.1118 8.76408 20.1118H8.78307C8.58924 19.7454 8.48922 19.3366 8.49196 18.9221C8.38753 17.2988 7.2832 17.0678 7.2832 17.0678ZM6.87185 17.4665C5.84346 16.2609 4.97328 15.011 4.84671 13.2105C4.73913 13.527 4.30245 14.4478 3.60948 14.7927C3.60948 14.7927 4.48282 14.2674 4.87519 12.217V12.2328C5.13466 10.1444 6.65035 8.63499 8.34007 7.72052C8.49512 7.63508 8.64068 7.56547 8.7799 7.49902C8.43622 7.56877 8.08151 7.56332 7.74013 7.48303C7.39875 7.40273 7.07879 7.24951 6.80223 7.03387C6.80223 7.03387 7.77999 7.75216 9.77982 7.10032C9.22607 7.46105 8.15021 7.96733 7.16929 8.79004C4.71065 10.9481 6.46998 13.0555 6.46998 13.0555C6.11142 12.7137 5.85873 12.2761 5.74203 11.7947C5.62533 11.3133 5.64955 10.8085 5.81181 10.3405C5.29109 11.2039 5.04193 12.2038 5.09669 13.2105C5.15681 14.8528 6.07445 16.302 7.02373 17.457C7.31112 17.8203 7.50555 18.2483 7.59014 18.7037C7.42755 18.2525 7.18296 17.8352 6.86868 17.4728" fill="white"/>
<path d="M11.6184 9.04632C11.6596 9.09062 11.7007 9.14125 11.7418 9.18871L11.7703 9.22352L11.8811 9.37857L11.9064 9.41338C11.9475 9.47666 11.9886 9.54628 12.0298 9.61589C12.171 9.89723 12.3811 10.1382 12.6406 10.3164C12.9001 10.4946 13.2005 10.6041 13.5138 10.6348C13.827 10.6038 14.1273 10.4942 14.3868 10.316C14.6462 10.1379 14.8564 9.89705 14.9979 9.61589C15.039 9.54628 15.0801 9.47666 15.1244 9.41338L15.1434 9.3849C15.1814 9.3311 15.2194 9.27731 15.2573 9.22352L15.2827 9.19188C15.3238 9.14125 15.3649 9.09062 15.4092 9.04632L15.4314 9.02733C15.6239 8.8254 15.8679 8.67988 16.137 8.60648L16.001 8.52421L15.482 8.20779L14.9472 7.89136L13.5202 8.66661L12.0867 7.91984L11.552 8.23626L11.0299 8.55269L10.897 8.62863C11.1662 8.70188 11.4102 8.84742 11.6026 9.04948L11.6248 9.07163L11.6184 9.04632ZM12.9411 9.00835H14.1467V9.42287C14.0919 9.3699 14.0259 9.3299 13.9537 9.3058C13.8814 9.28171 13.8046 9.27413 13.729 9.28364V9.88169C13.7321 10.0292 13.7712 10.1736 13.8429 10.3025H13.2385C13.315 10.1664 13.3543 10.0125 13.3525 9.85637V9.25833C13.2768 9.24882 13.2001 9.25639 13.1278 9.28049C13.0555 9.30458 12.9895 9.34459 12.9348 9.39755L12.9411 9.00835Z" fill="white"/>
<path d="M13.3874 8.17922V5.75538L11.8433 5.23328L12.2515 7.57484L13.3874 8.17922ZM13.071 6.35027V6.73947L12.9951 6.70466C12.8789 6.66553 12.7715 6.60428 12.6786 6.5243C12.596 6.47206 12.5251 6.40314 12.4707 6.32196C12.4162 6.24077 12.3792 6.14911 12.3622 6.05282L13.071 6.35027Z" fill="white"/>
<path d="M14.7703 7.57494L15.1753 5.22705L13.6343 5.74916V8.17299L14.7703 7.57494ZM13.9665 6.34404L14.669 6.04976C14.652 6.14604 14.615 6.23771 14.5605 6.3189C14.5061 6.40008 14.4352 6.469 14.3526 6.52124C14.2597 6.60122 14.1523 6.66247 14.0361 6.7016L13.9602 6.73641L13.9665 6.34404Z" fill="white"/>
<path d="M11.2037 13.7991C11.3417 13.8438 11.4859 13.8663 11.6309 13.8655V13.8212C11.6397 13.7931 11.6471 13.7646 11.653 13.7358C11.6758 13.6094 11.6885 13.4813 11.691 13.3529C11.6049 13.3014 11.5347 13.2269 11.4885 13.1377C11.4693 13.0847 11.4339 13.0391 11.3873 13.0073C11.3408 12.9755 11.2854 12.9591 11.229 12.9605C11.0889 12.9724 10.954 13.0192 10.8367 13.0966C10.818 13.2357 10.8423 13.3772 10.9062 13.5021C10.9701 13.6271 11.0706 13.7295 11.1942 13.7959" fill="white"/>
<path d="M14.618 12.5144C14.33 12.8308 13.7699 13.3688 13.7446 13.3972L13.7098 13.432L11.9378 13.4036C11.9363 13.5498 11.9172 13.6954 11.8809 13.8371V13.894L13.9851 14.2706C14.2034 14.1187 14.8078 13.6757 15.042 13.5048C14.8971 13.2824 14.8438 13.0125 14.8932 12.7517C14.7919 12.6882 14.702 12.6079 14.6274 12.5144" fill="white"/>
<path d="M14.8585 10.3816C14.5578 10.7081 14.1505 10.9168 13.7099 10.9701C13.6456 10.9734 13.5811 10.9734 13.5168 10.9701C13.4525 10.9734 13.3881 10.9734 13.3238 10.9701C13.26 10.9649 13.1965 10.9554 13.134 10.9417C13.0932 11.0949 13.1044 11.2574 13.1656 11.4037C13.2109 11.4915 13.2735 11.5693 13.3497 11.6324C13.4258 11.6955 13.5139 11.7425 13.6086 11.7707L13.6814 11.7992V11.8783C13.6895 12.04 13.7506 12.1945 13.8552 12.3181C13.9599 12.4416 14.1023 12.5272 14.2605 12.5618C14.3522 12.4669 14.4345 12.3814 14.4978 12.3086C14.4426 12.1973 14.4244 12.0711 14.4461 11.9487C14.4677 11.8263 14.528 11.714 14.618 11.6283C14.5924 11.8145 14.6226 12.0041 14.7049 12.1731C14.7871 12.3421 14.9177 12.4829 15.08 12.5776L15.1686 12.6187L15.1433 12.7137C15.0858 12.8988 15.1025 13.099 15.1898 13.272C15.2772 13.445 15.4285 13.5773 15.6116 13.6408L15.7287 13.6851L15.678 13.799C15.6027 13.9706 15.5957 14.1644 15.6587 14.3409C15.7216 14.5174 15.8497 14.6632 16.0166 14.7483H17.333V13.7041C17.1537 13.6809 16.9868 13.6002 16.8573 13.4742C16.7277 13.3481 16.6426 13.1834 16.6147 13.0048C16.4172 12.9788 16.2378 12.8766 16.1147 12.72C16.0374 12.6182 15.9927 12.4955 15.9865 12.3678C15.9802 12.2402 16.0128 12.1136 16.0799 12.0049C16.0828 12.2165 16.1601 12.4204 16.2982 12.5808C16.4122 12.699 16.565 12.7721 16.7286 12.7864H16.8235V12.8845C16.8329 13.0218 16.8868 13.1523 16.977 13.2563C17.0672 13.3602 17.1889 13.4319 17.3235 13.4604V11.353C17.3356 11.0192 17.4074 10.6901 17.5355 10.3816H14.8585Z" fill="white"/>
<path d="M11.3178 11.3594L11.2798 12.72L11.4348 12.7422L11.8145 11.4385L11.6215 11.0366L11.3178 11.3594Z" fill="white"/>
<path d="M15.4819 17.593H15.5198C15.754 17.6595 15.8141 18.5075 16.2255 18.5835C16.2623 18.5873 16.2994 18.5873 16.3362 18.5835C16.3889 18.5837 16.4408 18.5708 16.4872 18.546C16.5336 18.5211 16.5731 18.485 16.602 18.4411C16.602 18.4411 16.3932 18.1246 16.2381 17.8936C16.0325 17.6057 15.8711 17.2608 15.4882 17.2608H15.4597C15.3859 17.2638 15.3145 17.288 15.254 17.3304C15.1261 17.2466 14.9767 17.2016 14.8237 17.2007C14.6467 17.222 14.472 17.259 14.3016 17.3114L13.4441 17.226C13.3289 17.1983 13.229 17.1268 13.1656 17.0266V17.0045C13.1656 16.9823 13.1656 16.957 13.1656 16.9349C13.1717 16.705 13.0991 16.48 12.9598 16.297C12.8206 16.114 12.623 15.984 12.3999 15.9286C12.3999 15.9286 12.422 15.7957 12.3714 15.7451L12.1815 15.9729L11.5487 15.6565L11.9917 16.1723L11.6183 16.5931C11.6 16.6108 11.5879 16.6339 11.5839 16.659C11.5799 16.6841 11.5842 16.7099 11.5961 16.7323L11.7575 16.8747L11.9632 16.7513C11.9798 16.7468 11.9973 16.7468 12.0138 16.7513C12.0708 16.7513 12.1562 16.7513 12.2322 16.7513C12.3081 16.7513 12.3872 16.7323 12.3967 16.6564C12.3714 16.9159 12.1309 17.3684 12.2891 17.7228L12.403 18.017L11.6468 17.9095L11.2924 18.5075C11.2368 18.5841 11.205 18.6754 11.2011 18.77C11.1972 18.8645 11.2212 18.9581 11.2702 19.0391L11.4031 19.2037C11.495 19.1106 11.5718 19.0038 11.631 18.8872L11.5708 18.8208C11.5489 18.7998 11.5353 18.7716 11.5324 18.7414C11.5294 18.7112 11.5375 18.681 11.555 18.6562L11.7765 18.286L12.672 18.498L12.7195 18.4189C12.744 18.3768 12.7798 18.3424 12.8229 18.3195C12.8659 18.2965 12.9145 18.2861 12.9631 18.2892C13.0042 18.286 13.0454 18.286 13.0865 18.2892C13.321 18.3365 13.5593 18.3619 13.7985 18.3651C13.9336 18.379 14.0701 18.3656 14.1999 18.326C14.3298 18.2863 14.4504 18.2211 14.5547 18.1341C14.8712 18.6151 15.5357 18.691 15.4819 18.9347L15.3078 19.7574C15.4218 19.7574 15.5325 19.7574 15.6243 19.7289L15.7888 18.8746C15.8078 18.7828 15.8236 18.6562 15.8236 18.6562C15.7002 18.5518 15.5935 18.4291 15.5072 18.2923C15.3901 18.0708 15.4534 17.9538 15.3458 17.6595C15.3563 17.6399 15.3718 17.6235 15.3907 17.6119C15.4096 17.6002 15.4312 17.5937 15.4534 17.593H15.4819ZM12.1056 16.3906C12.0953 16.3902 12.0853 16.3877 12.076 16.3834C12.0667 16.379 12.0584 16.3727 12.0516 16.365C12.0448 16.3573 12.0396 16.3484 12.0364 16.3386C12.0332 16.3289 12.032 16.3186 12.0328 16.3083C12.0332 16.2981 12.0357 16.288 12.0401 16.2787C12.0445 16.2694 12.0507 16.2612 12.0584 16.2543C12.0661 16.2475 12.0751 16.2424 12.0848 16.2391C12.0946 16.2359 12.1049 16.2347 12.1151 16.2356C12.1356 16.2356 12.1554 16.2437 12.1699 16.2583C12.1844 16.2728 12.1926 16.2925 12.1926 16.3131C12.1926 16.3336 12.1844 16.3534 12.1699 16.3679C12.1554 16.3824 12.1356 16.3906 12.1151 16.3906" fill="white"/>
<path d="M10.9131 18.3714C10.9131 18.3714 11.2105 18.248 11.2295 18.1626L11.1916 18.0645C11.1754 18.0369 11.1698 18.0045 11.1756 17.9731C11.1814 17.9418 11.1983 17.9135 11.2232 17.8936L11.5396 17.6721L12.0744 17.7734C12.0142 17.692 11.983 17.5929 11.9858 17.4917L11.4858 17.3842L11.0049 17.6784C10.921 17.741 10.8604 17.8298 10.8329 17.9307C10.8054 18.0316 10.8124 18.1389 10.853 18.2353L10.9131 18.3714Z" fill="white"/>
<path d="M14.6938 19.7668H15.0103C15.0103 19.7668 15.2856 18.9631 15.3014 18.9378C15.0969 18.8424 14.8973 18.7368 14.7033 18.6213C14.7856 18.7447 14.985 18.884 14.9438 18.9916L14.6938 19.7668Z" fill="white"/>
<path d="M17.3247 15.0029H9.73047V17.8508C9.73047 19.0216 10.5753 19.7493 11.8252 19.7493C12.8694 19.7493 13.1447 19.7905 13.5308 20.1765C13.6517 20.0461 13.7987 19.9426 13.9622 19.8729C14.1258 19.8031 14.3022 19.7685 14.48 19.7715V19.7272L14.7205 18.9868L14.3123 18.5406C14.1484 18.59 13.977 18.6103 13.8061 18.6007C13.551 18.5978 13.2968 18.5713 13.0466 18.5216H12.9675C12.9327 18.5216 12.9327 18.5216 12.9232 18.5406L12.8758 18.6197L12.7903 18.7621L12.6258 18.7241L11.8948 18.5532L11.7936 18.7178V18.7368L11.8822 18.8349L11.8442 18.9614C11.7777 19.1164 11.6821 19.2571 11.5626 19.376L11.3791 19.5721L11.2114 19.3633L11.0879 19.2083C11.0228 19.1228 10.9805 19.0222 10.965 18.9159C10.9495 18.8097 10.9613 18.7012 10.9993 18.6007L10.7937 18.6861L10.7019 18.4836L10.6513 18.3412C10.5888 18.196 10.5777 18.0339 10.6197 17.8815C10.6617 17.7291 10.7543 17.5955 10.8823 17.5027L11.4708 17.1863L12.0309 17.297C12.0309 17.2432 12.056 16.9933 12.0718 16.9458H12.0309L11.7176 17.0759L11.4708 16.8869C11.4553 16.8716 11.3892 16.8743 11.3808 16.8542C11.3724 16.8341 11.3681 16.8125 11.3681 16.7907C11.3681 16.769 11.3724 16.7474 11.3808 16.7273C11.3892 16.7072 11.4015 16.689 11.417 16.6737L11.7176 16.218L10.955 15.2687L12.0973 15.7181L12.1765 15.6231L12.3347 15.4333L12.515 15.6041C12.5626 15.6506 12.5956 15.71 12.61 15.775C12.9264 15.9016 13.5118 16.2718 13.5592 16.873L13.3789 16.9458C13.4006 16.977 13.4301 17.0021 13.4643 17.0186L14.2997 17.1008L14.3756 17.0787C14.5185 17.0252 14.6693 16.9964 14.8218 16.9933C14.973 16.9943 15.1222 17.0289 15.2585 17.0945C15.3195 17.0726 15.3835 17.0598 15.4483 17.0565H15.4895C15.9356 17.0565 16.1603 17.392 16.3375 17.6578L16.4292 17.7907C16.5843 18.0122 16.79 18.3349 16.7995 18.3476L16.8912 18.49L16.7773 18.6229C16.7252 18.6909 16.6582 18.746 16.5813 18.7838C16.5045 18.8217 16.42 18.8413 16.3343 18.8412C16.2838 18.8459 16.2329 18.8459 16.1824 18.8412C16.1368 18.8322 16.0923 18.8184 16.0495 18.8001C16.0495 18.8444 16.0495 18.8982 16.0242 18.9425L15.8945 19.6892C16.3116 19.6052 16.6851 19.3753 16.9478 19.0406C17.2105 18.7059 17.3453 18.2886 17.3279 17.8634L17.3247 15.0029Z" fill="#FCE527"/>
<path d="M9.71054 14.7641H15.6246C15.5064 14.64 15.4239 14.4863 15.3861 14.3192C15.3482 14.152 15.3562 13.9778 15.4094 13.8148C15.3293 13.7765 15.2548 13.7276 15.1879 13.6693C14.9569 13.8401 14.2386 14.3528 14.0677 14.4825L14.0298 14.5078L11.7072 14.0965H11.6597C11.5839 14.1009 11.5078 14.1009 11.4319 14.0965C11.4211 14.1464 11.3936 14.1912 11.3539 14.2234C11.3142 14.2557 11.2647 14.2734 11.2136 14.2737H11.1756C11.1158 14.2636 11.0624 14.2304 11.0269 14.1812C10.9914 14.1321 10.9766 14.071 10.9857 14.011V13.9604C10.8392 13.8548 10.7267 13.7087 10.6621 13.5401C10.5974 13.3714 10.5835 13.1876 10.6219 13.0111V12.97L10.6567 12.9447C10.6567 12.9447 10.701 12.913 10.7611 12.8782L10.5934 12.8529C10.5634 12.8475 10.5366 12.8305 10.5189 12.8057C10.5012 12.7809 10.4938 12.7501 10.4984 12.72C10.5007 12.7049 10.506 12.6905 10.514 12.6775C10.522 12.6646 10.5325 12.6533 10.5448 12.6445C10.5572 12.6356 10.5713 12.6293 10.5861 12.626C10.601 12.6227 10.6164 12.6224 10.6313 12.6251L11.0332 12.6883L11.0712 11.2739L11.6692 10.6411L12.0426 11.4258L11.6502 12.7864L12.0046 12.8434C12.0347 12.8488 12.0614 12.8657 12.0791 12.8906C12.0968 12.9154 12.1042 12.9461 12.0996 12.9763C12.095 13.0031 12.0811 13.0274 12.0602 13.0448C12.0393 13.0622 12.0128 13.0716 11.9857 13.0712H11.9667L11.6787 13.0238V13.0459C11.7107 13.1024 11.7593 13.1477 11.8179 13.1756L13.5868 13.2041L14.0393 12.758C13.8703 12.6996 13.7212 12.5946 13.6093 12.4552C13.4973 12.3158 13.427 12.1477 13.4064 11.9701C13.186 11.8857 13.0061 11.7205 12.9033 11.5081C12.8174 11.3081 12.8029 11.0846 12.8622 10.8752C12.5836 10.766 12.332 10.5976 12.1249 10.3816H9.49854C9.62562 10.6905 9.69738 11.0193 9.71054 11.353V14.7641Z" fill="#FCE527"/>
<path d="M12.1441 16.2355C12.1338 16.2346 12.1235 16.2359 12.1138 16.2391C12.104 16.2423 12.0951 16.2475 12.0874 16.2543C12.0797 16.2611 12.0734 16.2694 12.069 16.2787C12.0647 16.2879 12.0622 16.298 12.0618 16.3083C12.0609 16.3185 12.0622 16.3288 12.0654 16.3386C12.0686 16.3483 12.0738 16.3573 12.0806 16.365C12.0874 16.3727 12.0957 16.3789 12.105 16.3833C12.1142 16.3877 12.1243 16.3902 12.1346 16.3906C12.1551 16.3906 12.1748 16.3824 12.1894 16.3678C12.2039 16.3533 12.2121 16.3336 12.2121 16.313C12.2121 16.2925 12.2039 16.2727 12.1894 16.2582C12.1748 16.2437 12.1551 16.2355 12.1346 16.2355" fill="#222220"/>
<path d="M17.3045 21.425L16.8678 21.2573L16.9881 20.8048L17.121 20.3112C16.523 20.617 15.8967 20.864 15.2509 21.0484C14.9345 21.137 14.7066 21.1782 14.7066 21.1782V21.4978C14.3174 21.561 13.9239 21.5948 13.5295 21.599H13.4947C13.1004 21.5949 12.7069 21.561 12.3176 21.4978V21.1813C12.3176 21.1813 12.0866 21.137 11.7702 21.0484C11.1243 20.8641 10.498 20.6172 9.9001 20.3112L10.0298 20.8048L10.1532 21.2573L9.71341 21.425L9.23877 21.6053C9.89148 21.944 10.5722 22.2256 11.2734 22.447L11.1057 22.9027C11.8697 23.195 12.6833 23.3358 13.5011 23.3172H13.52C14.3378 23.3359 15.1514 23.1951 15.9154 22.9027L15.7509 22.447C16.4511 22.2259 17.1309 21.9443 17.7823 21.6053L17.3045 21.425ZM9.75455 21.637L10.476 21.3965L10.264 20.7004C10.7283 20.9318 11.2109 21.1244 11.7069 21.2763L11.3588 22.2255C10.8068 22.0791 10.2706 21.8788 9.75771 21.6275L9.75455 21.637ZM13.5137 23.0799C12.8177 23.0761 12.1252 22.9814 11.4538 22.7983L11.8809 21.6402C12.4139 21.7741 12.961 21.8442 13.5105 21.849H13.5454C14.0949 21.8439 14.6419 21.7738 15.175 21.6402L15.6021 22.7983C14.9272 22.9869 14.2303 23.0859 13.5295 23.0926L13.5137 23.0799ZM15.6876 22.235L15.3395 21.2858C15.8355 21.134 16.3182 20.9413 16.7824 20.7099L16.5704 21.406L17.2887 21.6465C16.7759 21.898 16.2396 22.0983 15.6876 22.2445" fill="#222220"/>
<path d="M13.5107 3.36324C14.226 3.34375 14.9282 3.55817 15.5105 3.97394C15.6013 3.50456 15.776 3.05541 16.0263 2.64811L15.308 2.73038L14.9346 1.92982L14.21 2.30321L13.5107 1.61023L12.8114 2.30321L12.0868 1.92982L11.7134 2.73038L10.9951 2.64811C11.2456 3.05531 11.4204 3.5045 11.5109 3.97394C12.0935 3.55859 12.7955 3.34421 13.5107 3.36324ZM11.6818 3.00884L11.8811 3.03099L11.9666 2.85063L12.2165 2.3127L12.6817 2.55318L12.862 2.64495L13.0076 2.51205L13.5107 2.0026L14.0138 2.51205L14.1594 2.65444L14.3398 2.56268L14.8017 2.32219L15.0549 2.86012L15.1403 3.04048L15.3397 3.01833L15.5295 2.99618C15.4528 3.17114 15.3872 3.35082 15.3333 3.53411C14.7698 3.24533 14.1456 3.09472 13.5123 3.09472C12.879 3.09472 12.2548 3.24533 11.6913 3.53411C11.637 3.35093 11.5715 3.17128 11.4951 2.99618L11.6818 3.00884Z" fill="#222220"/>
<path d="M23.9715 12.7136C25.1233 12.7136 25.5094 11.5397 25.5252 11.4891L25.6549 11.0746H25.2214C24.7712 11.0589 24.3298 10.9452 23.9281 10.7414C23.5264 10.5375 23.1741 10.2484 22.8957 9.89428L22.8102 9.78986C22.2217 9.03992 21.6616 8.32796 20.6617 8.00204C20.7013 7.96712 20.7437 7.93538 20.7883 7.90711C21.0231 7.77434 21.2266 7.59259 21.3849 7.37419C21.5433 7.15579 21.6527 6.90587 21.7059 6.6414C21.7601 6.15778 21.6239 5.67207 21.3262 5.28709L21.0098 4.89156L20.8104 5.36303C20.8104 5.39151 20.4592 6.14777 19.7504 6.14777H19.6808H19.5416C19.5608 5.90178 19.5267 5.65452 19.4415 5.42295C19.3563 5.19138 19.222 4.98096 19.0479 4.80612C18.8362 4.58978 18.5831 4.41832 18.3036 4.30197C18.0242 4.18563 17.7242 4.12679 17.4215 4.12896C17.3081 4.1285 17.1949 4.13696 17.0829 4.15428L16.5988 4.24921L16.8994 4.64474C17.1335 4.96117 17.3455 5.50859 17.0956 5.80287C16.9758 5.90704 16.8387 5.98949 16.6905 6.04652C16.3741 6.19524 15.9185 6.40724 15.9185 6.93884C15.9185 7.28375 16.1874 7.64448 16.6716 7.95141C18.0986 8.85639 18.9815 9.78986 19.3644 10.8404C19.9561 12.4415 19.184 13.3528 18.4341 13.8338L18.0986 14.049L18.3929 14.3179C18.6551 14.5426 18.9797 14.6817 19.3232 14.7166C19.4245 14.7166 19.5194 14.7166 19.6112 14.7166C19.9048 14.7177 20.1971 14.6751 20.4782 14.5901C20.4073 14.7138 20.3246 14.8303 20.2314 14.9381C20.0204 15.1832 19.7562 15.3767 19.4589 15.504C19.1617 15.6312 18.8392 15.6888 18.5163 15.6722H18.2347L18.2126 15.9539C18.2113 16.1488 18.2529 16.3417 18.3344 16.5189C18.4158 16.696 18.5352 16.8531 18.684 16.9791C18.763 17.0483 18.8514 17.1059 18.9467 17.15C18.7149 17.376 18.53 17.6455 18.4024 17.943C18.2748 18.2405 18.2071 18.5603 18.2031 18.884C18.2026 19.2423 18.1214 19.596 17.9657 19.9187L17.6493 20.3933H18.2126C19.1429 20.3933 19.8548 20.1381 20.3484 19.6276C20.6045 19.3581 20.7951 19.0333 20.9054 18.6783C21.0883 18.8323 21.3052 18.9408 21.5382 18.9947C21.6492 19.0204 21.7628 19.0331 21.8768 19.0327C22.0473 19.0322 22.2172 19.012 22.3831 18.9726L22.7438 18.8777L22.5856 18.5422C22.3869 18.0063 22.3869 17.4169 22.5856 16.881C22.7028 16.5315 22.7845 16.1711 22.8292 15.8051C23.1142 15.9503 23.4302 16.0241 23.75 16.0203C24.0077 16.0241 24.2621 15.9625 24.4895 15.8413C24.717 15.7201 24.91 15.5433 25.0506 15.3273L25.2246 15.0109L24.9082 14.878C23.8481 14.4382 23.614 13.2547 23.5665 12.6156C23.6708 12.6367 23.7766 12.6494 23.8829 12.6535L23.9715 12.7136ZM24.8132 15.2198C24.702 15.3875 24.5504 15.5247 24.3724 15.6187C24.1944 15.7127 23.9956 15.7605 23.7943 15.7577C23.5671 15.7711 23.34 15.7306 23.1315 15.6393C22.9231 15.5479 22.7392 15.4085 22.5951 15.2324C22.6043 15.7711 22.5164 16.307 22.3356 16.8146C22.1048 17.4264 22.1048 18.1013 22.3356 18.7131C22.1948 18.7479 22.0503 18.766 21.9053 18.7669C21.8157 18.7676 21.7264 18.7569 21.6395 18.7353C21.4332 18.6861 21.2429 18.585 21.0867 18.4415C20.9306 18.2981 20.8137 18.1171 20.7471 17.9157C20.7471 17.9157 20.8136 20.1117 18.2537 20.1117H18.2347C18.429 19.7455 18.5291 19.3366 18.5258 18.922C18.6366 17.2987 19.7377 17.0677 19.7377 17.0677C19.4353 17.0294 19.146 16.921 18.8929 16.7513C18.7792 16.6555 18.6873 16.5364 18.6234 16.4022C18.5596 16.2679 18.5252 16.1215 18.5227 15.9729C18.8883 15.9888 19.2529 15.9217 19.5888 15.7764C19.9248 15.6312 20.2235 15.4116 20.4624 15.1343C20.7523 14.8016 20.9479 14.3974 21.0288 13.9635C20.62 14.2695 20.1181 14.4249 19.608 14.4034C19.5257 14.4034 19.4371 14.4034 19.3485 14.4034C19.0723 14.3761 18.8109 14.2658 18.5986 14.0869C19.5732 13.4541 20.2567 12.3719 19.6523 10.7296C19.165 9.41331 17.9974 8.42922 16.8234 7.68878C16.4342 7.44829 16.2001 7.17616 16.2001 6.94201C16.2001 6.39142 16.9817 6.3756 17.3044 5.99272C17.6746 5.56238 17.4436 4.86624 17.1209 4.44856C17.2128 4.43272 17.306 4.42531 17.3993 4.42641C17.6609 4.42385 17.9203 4.47441 18.1618 4.57504C18.4033 4.67566 18.6219 4.82424 18.8043 5.0118C18.9871 5.18603 19.1186 5.40711 19.1845 5.65094C19.2503 5.89477 19.248 6.152 19.1777 6.39459L19.3485 6.42939C19.453 6.44835 19.5588 6.45893 19.665 6.46104H19.7346C20.6617 6.46104 21.0794 5.4896 21.0794 5.4896C21.0794 5.4896 22.0666 6.70469 20.6142 7.65397C20.3643 7.81535 20.2535 7.9704 20.2978 8.12861L20.32 8.23303L20.4244 8.25202C21.4781 8.5368 22.0065 9.26459 22.6615 10.0905C22.9682 10.4799 23.3561 10.7977 23.7982 11.0217C24.2404 11.2458 24.7261 11.3707 25.2214 11.3878H25.2404C25.2404 11.3878 24.924 12.3941 23.9747 12.3941H23.9304C23.6994 12.3967 23.4724 12.3342 23.2754 12.2137C23.2754 12.2137 23.1077 14.5015 24.8132 15.2103" fill="#222220"/>
<path d="M21.9435 8.14456C22.2984 8.34581 22.606 8.62099 22.8453 8.95145C23.0249 9.23026 23.2824 9.45029 23.5857 9.5843C23.701 9.62289 23.8218 9.64213 23.9433 9.64126C24.1811 9.64053 24.4141 9.57428 24.6168 9.44981C24.8194 9.32533 24.9838 9.14742 25.0919 8.93563L25.2755 8.52427L24.8293 8.49896C24.3494 8.4118 23.9138 8.16274 23.5952 7.79332C23.4779 7.66589 23.3356 7.5639 23.1772 7.49369C23.0188 7.42348 22.8477 7.38653 22.6744 7.38513C22.4036 7.38936 22.1395 7.46939 21.9118 7.61612L21.5005 7.90407L21.9435 8.14456ZM22.6744 7.69523C22.8071 7.69594 22.9382 7.72447 23.0592 7.77897C23.1802 7.83348 23.2884 7.91274 23.3769 8.01166C23.7485 8.43472 24.2549 8.71641 24.8103 8.80906C24.7258 8.96578 24.6008 9.09693 24.4483 9.18877C24.2958 9.28062 24.1213 9.3298 23.9433 9.33116C23.8539 9.33128 23.7651 9.31631 23.6807 9.28686C23.1681 9.11283 22.9877 8.33758 22.0985 7.86927C22.2733 7.75673 22.4761 7.69535 22.6839 7.69207" fill="#222220"/>
<path d="M22.1459 12.2169C21.8864 10.1284 20.3707 8.61907 18.6841 7.70459C18.5291 7.61916 18.3835 7.54954 18.2443 7.48309C18.5885 7.55311 18.9437 7.54779 19.2857 7.4675C19.6276 7.38721 19.9481 7.23384 20.2251 7.01794C20.2251 7.01794 19.2474 7.73624 17.2476 7.08439C17.8013 7.44512 18.8772 7.95141 19.8613 8.77412C22.3167 10.9322 20.5606 13.0396 20.5606 13.0396C20.9193 12.698 21.1724 12.2605 21.2896 11.7791C21.4069 11.2978 21.3834 10.793 21.2219 10.3246C21.7406 11.1888 21.9896 12.1881 21.937 13.1946C21.8674 14.8527 20.9466 16.3019 19.9973 17.4569C19.7111 17.8205 19.5177 18.2485 19.4341 18.7036C19.5959 18.252 19.8405 17.8345 20.1555 17.4727C21.1839 16.2671 22.0541 15.0172 22.1775 13.2168C22.2851 13.5332 22.7218 14.454 23.4179 14.7989C23.4179 14.7989 22.5446 14.2736 22.1522 12.2232" fill="#222220"/>
<path d="M9.05224 19.941C8.89882 19.6174 8.81783 19.2643 8.81492 18.9062C8.81049 18.5823 8.74226 18.2624 8.61413 17.9649C8.48599 17.6674 8.30046 17.398 8.06815 17.1722C8.16352 17.1283 8.25199 17.0707 8.33078 17.0014C8.47978 16.8755 8.59925 16.7184 8.68074 16.5413C8.76222 16.3641 8.80371 16.1711 8.80226 15.9761L8.78327 15.6945H8.49849C8.17609 15.7105 7.85428 15.6527 7.55761 15.5255C7.26094 15.3983 6.99724 15.205 6.78662 14.9604C6.69381 14.8522 6.61119 14.7357 6.5398 14.6123C6.82088 14.6975 7.11312 14.7402 7.40681 14.7389C7.49858 14.7389 7.59351 14.7389 7.69476 14.7389C8.03932 14.7044 8.36507 14.5653 8.62822 14.3402L8.9225 14.0712L8.58709 13.8561C7.83399 13.3751 7.06507 12.4638 7.65679 10.8627C8.03967 9.82161 8.9225 8.88182 10.3622 7.97684C10.8464 7.66041 11.1122 7.30917 11.1122 6.96427C11.1122 6.43267 10.666 6.22066 10.3401 6.07194C10.1918 6.01515 10.0547 5.93268 9.93507 5.82829C9.68193 5.53401 9.89393 4.97394 10.1313 4.67017L10.4477 4.27463L9.96038 4.1797C9.84838 4.16227 9.73516 4.1538 9.62181 4.15439C9.31717 4.14554 9.01392 4.19877 8.7305 4.31083C8.44708 4.42289 8.18943 4.59144 7.97322 4.80623C7.79602 4.98015 7.65869 5.19047 7.57073 5.42266C7.48277 5.65485 7.44628 5.90337 7.46377 6.15105H7.32454H7.27391C6.56195 6.15105 6.22654 5.39795 6.21388 5.36631L6.01453 4.89483L5.6981 5.29037C5.40394 5.677 5.26917 6.16169 5.32156 6.64468C5.37397 6.90901 5.4828 7.15892 5.64062 7.37736C5.79844 7.59579 6.00153 7.77761 6.23603 7.91039C6.28079 7.93845 6.32313 7.97021 6.3626 8.00531C5.36269 8.32174 4.80261 9.0432 4.21406 9.79313L4.12862 9.90072C3.84989 10.2553 3.49702 10.5446 3.09474 10.7485C2.69245 10.9524 2.25046 11.0658 1.79972 11.081H1.36621L1.49911 11.4955C1.49911 11.5461 1.89781 12.7201 3.05277 12.7201H3.10973C3.21604 12.7158 3.32184 12.7031 3.42615 12.6821C3.37869 13.315 3.14453 14.5047 2.08134 14.9446L1.76491 15.0775L1.93894 15.3939C2.07953 15.6099 2.27254 15.7867 2.49996 15.9079C2.72738 16.0291 2.9818 16.0906 3.23946 16.0869C3.5582 16.09 3.87299 16.0162 4.1571 15.8717C4.20161 16.2377 4.28325 16.5981 4.40075 16.9476C4.59948 17.4835 4.59948 18.0729 4.40075 18.6088L4.24254 18.9442L4.60327 19.0391C4.76915 19.0786 4.93904 19.0988 5.10955 19.0993C5.2235 19.0998 5.33712 19.087 5.44813 19.0613C5.68121 19.0076 5.89815 18.8991 6.08098 18.7449C6.19116 19.0999 6.38174 19.4248 6.63789 19.6942C7.13363 20.2025 7.84559 20.4578 8.77378 20.4599H9.33702L9.05224 19.941ZM8.78011 20.1182C6.22021 20.1182 6.28349 17.9222 6.28349 17.9222C6.21698 18.1235 6.10007 18.3045 5.94389 18.448C5.78771 18.5914 5.59744 18.6925 5.39117 18.7417C5.30428 18.7635 5.21496 18.7742 5.12537 18.7733C4.98136 18.7723 4.83798 18.7542 4.69819 18.7196C4.92811 18.1076 4.92811 17.433 4.69819 16.821C4.51863 16.3132 4.43181 15.7773 4.44189 15.2389C4.29773 15.415 4.11388 15.5544 3.90542 15.6457C3.69695 15.737 3.46981 15.7776 3.24263 15.7641H3.2268C3.0247 15.7671 2.82509 15.7191 2.64645 15.6245C2.46781 15.5299 2.31589 15.3919 2.20474 15.223C3.91029 14.5142 3.74258 12.2265 3.74258 12.2265C3.54549 12.3468 3.31851 12.4093 3.08758 12.4068H3.05277C2.10349 12.4068 1.78706 11.4006 1.78706 11.4006H1.80605C2.30174 11.3846 2.78795 11.2604 3.23067 11.0369C3.67339 10.8133 4.06193 10.4958 4.36911 10.1064C5.02095 9.28052 5.55255 8.55273 6.60625 8.26795L6.71067 8.24896L6.73282 8.14454C6.7613 7.98316 6.65055 7.82811 6.41639 7.6699C4.96399 6.72062 5.95125 5.50554 5.95125 5.50554C5.95125 5.50554 6.3626 6.47697 7.29606 6.47697H7.34036C7.4465 6.47469 7.5523 6.46411 7.65679 6.44533L7.82766 6.41052C7.75701 6.16796 7.75447 5.91064 7.82033 5.66673C7.88619 5.42283 8.0179 5.20176 8.20105 5.02773C8.38344 4.84018 8.602 4.69159 8.84349 4.59097C9.08498 4.49035 9.34438 4.43978 9.60598 4.44234C9.69929 4.44117 9.7925 4.44859 9.88444 4.46449C9.56801 4.88534 9.33386 5.58148 9.70408 6.00866C10.0205 6.37888 10.8052 6.3947 10.8052 6.95794C10.8052 7.1921 10.5869 7.46422 10.1977 7.70787C9.02059 8.44831 7.85298 9.4324 7.36884 10.7487C6.76447 12.391 7.44795 13.4827 8.42255 14.106C8.21008 14.2845 7.94872 14.3948 7.67261 14.4225C7.58085 14.4225 7.49541 14.4225 7.40998 14.4225C6.89985 14.444 6.39796 14.2886 5.98922 13.9826C6.06992 14.4159 6.2643 14.82 6.55246 15.1534C6.79212 15.4306 7.09138 15.65 7.42783 15.7953C7.76428 15.9405 8.12921 16.0077 8.49532 15.9919C8.49278 16.1406 8.45842 16.287 8.39456 16.4213C8.3307 16.5555 8.23882 16.6746 8.1251 16.7704C7.87189 16.94 7.58262 17.0484 7.28024 17.0868C7.28024 17.0868 8.38457 17.3115 8.50482 18.9411C8.50208 19.3556 8.6021 19.7644 8.79593 20.1308L8.78011 20.1182Z" fill="#222220"/>
<path d="M3.07802 9.6381C3.19953 9.63891 3.32034 9.61967 3.43558 9.58114C3.73906 9.44728 3.99654 9.22722 4.17602 8.94828C4.41444 8.61817 4.72088 8.34302 5.07468 8.14139L5.51768 7.90407L5.10632 7.61612C4.87975 7.46964 4.61665 7.38962 4.34689 7.38513C4.17341 7.38693 4.00215 7.42437 3.84375 7.49514C3.68535 7.5659 3.54319 7.66848 3.42609 7.79649C3.10818 8.16509 2.67391 8.41404 2.19519 8.50212L1.74902 8.52427L1.92939 8.93563C2.03772 9.14636 2.20182 9.3233 2.40381 9.44717C2.6058 9.57104 2.83791 9.63708 3.07486 9.6381H3.07802ZM3.64126 8.01166C3.72973 7.91274 3.83795 7.83348 3.95895 7.77897C4.07995 7.72447 4.21103 7.69594 4.34373 7.69523C4.55047 7.69927 4.75202 7.76061 4.92596 7.87243C4.03047 8.35024 3.84377 9.11599 3.34382 9.29003C3.2605 9.31954 3.17274 9.33452 3.08435 9.33433C2.90484 9.33414 2.72876 9.28516 2.57493 9.19264C2.4211 9.10012 2.29531 8.96754 2.21101 8.80906C2.76652 8.71666 3.27297 8.43493 3.64442 8.01166" fill="#222220"/>
<path d="M5.09026 13.2073C5.0355 12.2006 5.28465 11.2006 5.80538 10.3373C5.64351 10.8056 5.61978 11.3106 5.73705 11.792C5.85431 12.2734 6.10761 12.7109 6.46672 13.0523C6.46672 13.0523 4.70738 10.9448 7.16602 8.78681C8.15011 7.9641 9.2228 7.45782 9.77655 7.09709C7.77673 7.74893 6.79897 7.03064 6.79897 7.03064C7.07553 7.24628 7.39548 7.39951 7.73686 7.4798C8.07824 7.56009 8.43295 7.56554 8.77664 7.49579C8.63741 7.56224 8.49185 7.63502 8.3368 7.71729C6.65024 8.63493 5.12506 10.1443 4.87509 12.2327V12.2169C4.48272 14.2673 3.60938 14.7926 3.60938 14.7926C4.30235 14.4509 4.74219 13.5269 4.84661 13.2105C4.96369 15.0141 5.84335 16.264 6.87174 17.4664C7.18608 17.8287 7.43068 18.246 7.5932 18.6973C7.5067 18.2438 7.31123 17.8181 7.02363 17.4569C6.07435 16.302 5.15671 14.8527 5.09026 13.2073Z" fill="#222220"/>
<path d="M12.9316 8.98303V9.39755C12.9868 9.34414 13.0533 9.30387 13.1261 9.27977C13.199 9.25566 13.2764 9.24833 13.3525 9.25832V9.85637C13.35 10.0039 13.3109 10.1486 13.2386 10.2772H13.8366C13.7649 10.1483 13.7258 10.0038 13.7227 9.85637V9.25832C13.7983 9.24882 13.8751 9.25639 13.9474 9.28049C14.0197 9.30458 14.0856 9.34459 14.1404 9.39755V8.98303H12.9316Z" fill="#222220"/>
<path d="M12.6753 6.52751C12.7682 6.60749 12.8756 6.66874 12.9918 6.70787L13.0677 6.74268V6.35031L12.3652 6.05603C12.3823 6.15231 12.4192 6.24398 12.4737 6.32516C12.5282 6.40635 12.599 6.47527 12.6817 6.52751" fill="#222220"/>
<path d="M14.346 6.52751C14.4287 6.47527 14.4995 6.40635 14.554 6.32516C14.6085 6.24398 14.6454 6.15231 14.6624 6.05603L13.96 6.35031V6.73951L14.0327 6.70471C14.1489 6.66557 14.2563 6.60432 14.3492 6.52434" fill="#222220"/>
<path d="M15.6083 4.93899C15.6083 4.34727 14.6116 3.81567 13.5136 3.81567C12.4156 3.81567 11.4188 4.34727 11.4188 4.93899L11.441 5.08455L11.8808 7.61597L11.441 7.87228L10.2923 8.52412C10.2923 8.52412 10.036 8.65702 9.91577 8.73612C9.48227 9.05255 9.3905 9.47657 9.64048 9.66009C9.67138 9.45165 9.77768 9.26178 9.93923 9.12647C10.1008 8.99117 10.3064 8.91983 10.517 8.92598C10.6965 8.93108 10.8723 8.97843 11.0301 9.0642C11.1879 9.14997 11.3232 9.27173 11.4251 9.41961C11.4871 9.4961 11.5442 9.57643 11.596 9.66009C11.6625 9.76768 11.7289 9.86261 11.7954 9.95437H8.86523C9.11172 10.3795 9.25581 10.8562 9.28608 11.3467V17.8556C9.28608 19.4377 10.498 20.1813 11.8175 20.1813C12.8301 20.1813 12.9661 20.1339 13.523 20.6908C14.08 20.1339 14.216 20.1813 15.2286 20.1813C16.5386 20.1813 17.76 19.4314 17.76 17.8556V11.353C17.7903 10.8625 17.9344 10.3858 18.1809 9.9607H15.2191C15.2855 9.86894 15.352 9.77401 15.4184 9.66642C15.471 9.58325 15.5281 9.50297 15.5893 9.42594C15.6917 9.27782 15.8276 9.15593 15.986 9.07016C16.1443 8.98439 16.3206 8.93717 16.5006 8.93231C16.7113 8.92616 16.9168 8.9975 17.0784 9.1328C17.2399 9.2681 17.3462 9.45797 17.3771 9.66642C17.6303 9.48606 17.5385 9.03357 17.1018 8.74245C16.9848 8.66018 16.7285 8.53045 16.7285 8.53045L15.5893 7.85962L15.1495 7.60331L15.5893 5.07189L15.6083 4.93899ZM11.8428 5.23011L13.387 5.75221V8.17605L12.251 7.57484L11.8428 5.23011ZM12.1592 10.3815C12.3663 10.5976 12.6179 10.7661 12.8965 10.8752C12.8373 11.0846 12.8518 11.308 12.9377 11.508C13.0405 11.7204 13.2204 11.8857 13.4408 11.97C13.4614 12.1476 13.5317 12.3158 13.6436 12.4552C13.7556 12.5946 13.9047 12.6995 14.0736 12.7579C13.8838 12.9509 13.6971 13.1313 13.6211 13.2041L11.8523 13.1756C11.7937 13.1477 11.7451 13.1024 11.7131 13.0459V13.0237L12.001 13.0712H12.02C12.0472 13.0716 12.0736 13.0622 12.0945 13.0448C12.1154 13.0274 12.1294 13.0031 12.1339 12.9763C12.1385 12.9461 12.1312 12.9153 12.1135 12.8905C12.0957 12.8657 12.069 12.8488 12.039 12.8434L11.6846 12.7864L12.077 11.4258L11.7036 10.641L11.1055 11.2739L11.0676 12.6883L10.6657 12.625C10.6507 12.6223 10.6354 12.6226 10.6205 12.626C10.6056 12.6293 10.5916 12.6356 10.5792 12.6444C10.5668 12.6533 10.5563 12.6645 10.5484 12.6775C10.5404 12.6905 10.5351 12.7049 10.5328 12.7199C10.5282 12.7501 10.5355 12.7809 10.5533 12.8057C10.571 12.8305 10.5977 12.8474 10.6277 12.8528L10.7954 12.8782C10.7353 12.913 10.6942 12.9383 10.691 12.9446L10.6562 12.9699V13.0111C10.6182 13.1875 10.6324 13.3713 10.697 13.5398C10.7616 13.7084 10.8739 13.8545 11.0201 13.9603V14.011C11.011 14.0709 11.0257 14.132 11.0612 14.1812C11.0968 14.2303 11.1502 14.2635 11.21 14.2736H11.2479C11.2991 14.2733 11.3486 14.2556 11.3883 14.2234C11.4279 14.1912 11.4555 14.1464 11.4663 14.0964C11.5411 14.1008 11.6161 14.1008 11.6909 14.0964H11.7384L14.0578 14.5173L14.0958 14.4919C14.2793 14.3622 14.9849 13.8591 15.2159 13.6787C15.2829 13.737 15.3574 13.7859 15.4374 13.8243C15.3843 13.9872 15.3762 14.1615 15.4141 14.3286C15.452 14.4957 15.5344 14.6495 15.6526 14.7736H9.7101V11.353C9.69694 11.0192 9.62518 10.6904 9.49809 10.3815H12.1592ZM15.0261 13.5047C14.7919 13.6787 14.1875 14.1186 13.9692 14.2704L11.865 13.9034V13.8464C11.9012 13.7047 11.9203 13.5592 11.9219 13.4129L13.6939 13.4414L13.7287 13.4066C13.7572 13.3781 14.3173 12.837 14.6021 12.5238C14.6768 12.6172 14.7666 12.6974 14.8679 12.7611C14.818 13.0219 14.8714 13.2919 15.0166 13.5142L15.0261 13.5047ZM11.5011 13.1408C11.5473 13.2299 11.6174 13.3044 11.7036 13.356C11.701 13.4844 11.6883 13.6124 11.6656 13.7388C11.6656 13.7673 11.6656 13.7958 11.6435 13.8243V13.8686C11.4984 13.8693 11.3542 13.8469 11.2163 13.8021C11.0929 13.7357 10.9928 13.633 10.9295 13.508C10.8661 13.383 10.8425 13.2416 10.8619 13.1028C10.9743 13.0228 11.1047 12.9717 11.2416 12.9541C11.2981 12.9522 11.3537 12.9684 11.4003 13.0003C11.447 13.0321 11.4823 13.078 11.5011 13.1313V13.1408ZM11.2827 12.7105L11.3175 11.372L11.634 11.0555L11.827 11.4574L11.4504 12.7611L11.2827 12.7105ZM15.0134 19.7605H14.697L14.9343 18.9852C14.9723 18.8776 14.7761 18.7384 14.6938 18.615C14.8877 18.7306 15.0873 18.8362 15.2919 18.9314C15.2919 18.9567 15.0008 19.7605 15.0008 19.7605H15.0134ZM15.7887 18.8713L15.6241 19.7257C15.5197 19.7257 15.409 19.7478 15.3077 19.7541L15.4817 18.9314C15.5324 18.6878 14.8774 18.615 14.5546 18.1309C14.4503 18.2178 14.3297 18.283 14.1998 18.3227C14.0699 18.3624 13.9334 18.3757 13.7983 18.3619C13.5592 18.3587 13.3208 18.3333 13.0864 18.2859C13.0453 18.2826 13.004 18.2826 12.963 18.2859C12.9143 18.2824 12.8656 18.2927 12.8225 18.3157C12.7794 18.3386 12.7436 18.3733 12.7193 18.4156L12.6719 18.4948L11.77 18.2764L11.5549 18.6498C11.538 18.6748 11.5303 18.7049 11.5332 18.7349C11.5361 18.765 11.5493 18.793 11.5707 18.8143L11.6308 18.8808C11.5717 18.9974 11.4948 19.1041 11.403 19.1972L11.2701 19.0327C11.2211 18.9517 11.197 18.8581 11.201 18.7635C11.2049 18.669 11.2366 18.5777 11.2922 18.5011L11.6466 17.903L12.4029 18.0169L12.2858 17.748C12.1276 17.3936 12.3681 16.9411 12.3934 16.6816C12.3934 16.7607 12.3111 16.7766 12.2289 16.7766C12.1466 16.7766 12.0675 16.7766 12.0105 16.7766C11.994 16.7718 11.9764 16.7718 11.9599 16.7766L11.7542 16.9L11.5928 16.7512C11.5809 16.7288 11.5766 16.703 11.5806 16.6779C11.5846 16.6528 11.5967 16.6297 11.615 16.612L11.9884 16.1912L11.5454 15.6754L12.1782 15.9918L12.3681 15.764C12.4187 15.8146 12.3966 15.9475 12.3966 15.9475C12.6197 16.0029 12.8173 16.1329 12.9565 16.3159C13.0958 16.4989 13.1684 16.7239 13.1623 16.9538C13.1623 16.9759 13.1623 16.9981 13.1623 17.0234V17.0455C13.2254 17.1459 13.3254 17.2175 13.4408 17.2449L14.2983 17.3303C14.4687 17.2779 14.6434 17.2409 14.8204 17.2196C14.9733 17.2205 15.1228 17.2655 15.2507 17.3493C15.3111 17.3067 15.3826 17.2825 15.4564 17.2797H15.4849C15.8678 17.2797 16.0292 17.6277 16.2348 17.9125C16.3899 18.1309 16.5987 18.4599 16.5987 18.4599C16.5698 18.5039 16.5303 18.54 16.4839 18.5648C16.4375 18.5897 16.3856 18.6026 16.3329 18.6023C16.2961 18.606 16.259 18.606 16.2222 18.6023C15.8108 18.5264 15.7507 17.6784 15.5165 17.6119H15.4786C15.4564 17.6126 15.4348 17.6191 15.4159 17.6307C15.397 17.6424 15.3815 17.6588 15.371 17.6784C15.4786 17.9663 15.4153 18.0834 15.5324 18.3112C15.6186 18.448 15.7253 18.5707 15.8488 18.6751C15.8488 18.6751 15.833 18.8017 15.814 18.8935L15.7887 18.8713ZM11.1973 18.0644L11.2353 18.1625C11.21 18.2479 10.9188 18.3713 10.9188 18.3713L10.8556 18.2321C10.815 18.1357 10.808 18.0284 10.8355 17.9275C10.863 17.8265 10.9236 17.7377 11.0074 17.6752L11.4853 17.3841L11.9947 17.4917C11.9919 17.5928 12.0231 17.692 12.0833 17.7733L11.5485 17.672L11.2321 17.8935C11.2083 17.9143 11.1924 17.9427 11.1872 17.9739C11.182 18.005 11.1878 18.0371 11.2036 18.0644H11.1973ZM15.8836 19.6814L16.0292 18.9156C16.0292 18.8713 16.045 18.8175 16.0513 18.7732C16.094 18.7916 16.1386 18.8054 16.1842 18.8143C16.2347 18.8191 16.2856 18.8191 16.3361 18.8143C16.4217 18.8145 16.5063 18.7948 16.5831 18.757C16.6599 18.7191 16.727 18.664 16.7791 18.596L16.893 18.4631L16.7981 18.3334C16.7981 18.3334 16.5861 17.998 16.4279 17.7765L16.3393 17.6436C16.1621 17.3778 15.9374 17.0424 15.4912 17.0424H15.4501C15.3853 17.0454 15.3213 17.0582 15.2602 17.0803C15.124 17.0147 14.9748 16.9801 14.8236 16.9791C14.6711 16.9823 14.5203 17.0112 14.3774 17.0645L14.3015 17.0867L13.4661 17.0044C13.4319 16.9877 13.4025 16.9627 13.3807 16.9316L13.561 16.8588C13.5104 16.2544 12.9282 15.8842 12.6117 15.7608C12.5974 15.6958 12.5644 15.6364 12.5168 15.5899L12.3364 15.4191L12.1782 15.6089L12.0991 15.7039L10.9283 15.2229L11.6909 16.1722L11.3903 16.6278C11.3748 16.6431 11.3625 16.6614 11.3541 16.6815C11.3457 16.7016 11.3414 16.7231 11.3414 16.7449C11.3414 16.7667 11.3457 16.7883 11.3541 16.8084C11.3625 16.8285 11.3748 16.8467 11.3903 16.862L11.7068 17.0772L12.0232 16.9569H12.0548C12.0548 17.0044 12.02 17.1974 12.0042 17.2512L11.4536 17.1563L10.8651 17.4727C10.7331 17.5674 10.6384 17.7053 10.5973 17.8625C10.5563 18.0197 10.5715 18.1862 10.6404 18.3334L10.7068 18.4758L10.7986 18.6783L11.0043 18.5928C10.9663 18.6933 10.9545 18.8018 10.97 18.9081C10.9855 19.0144 11.0278 19.115 11.0929 19.2004L11.2163 19.3586L11.3808 19.5674L11.5644 19.3713C11.6842 19.2526 11.7798 19.1118 11.846 18.9567L11.884 18.8302L11.7954 18.7321V18.7131L11.8966 18.5485L12.6276 18.7194L12.7921 18.7574L12.8807 18.6118L12.9282 18.5327C12.9282 18.5169 12.9282 18.5137 12.9725 18.5137H13.0516C13.3007 18.5634 13.5538 18.5899 13.8078 18.5928C13.9788 18.6025 14.1502 18.5821 14.3141 18.5327L14.7191 18.9947L14.4787 19.7352V19.7795C14.3009 19.7765 14.1244 19.811 13.9609 19.8808C13.7973 19.9506 13.6503 20.0541 13.5294 20.1845C13.1402 19.7984 12.8649 19.7573 11.8238 19.7573C10.5739 19.7573 9.72908 19.0264 9.72908 17.8587V15.0109H17.3233V17.8587C17.3397 18.2842 17.2037 18.7016 16.9398 19.0357C16.6758 19.3698 16.3013 19.5988 15.8836 19.6814ZM17.529 10.3815C17.4008 10.6901 17.329 11.0191 17.317 11.353V13.4857C17.1824 13.4571 17.0608 13.3854 16.9705 13.2815C16.8803 13.1776 16.8264 13.0471 16.8171 12.9098V12.8117H16.7221C16.5585 12.7976 16.4055 12.7245 16.2918 12.606C16.1537 12.4456 16.0764 12.2418 16.0735 12.0301C16.0064 12.1389 15.9738 12.2654 15.98 12.3931C15.9862 12.5207 16.0309 12.6435 16.1083 12.7453C16.2313 12.9018 16.4108 13.004 16.6082 13.03C16.6362 13.2086 16.7213 13.3733 16.8508 13.4994C16.9803 13.6255 17.1472 13.7062 17.3265 13.7294V14.7736H15.9975C15.8306 14.6884 15.7025 14.5427 15.6396 14.3662C15.5766 14.1897 15.5836 13.9958 15.6589 13.8243L15.7096 13.7104L15.5925 13.6661C15.4094 13.6025 15.2581 13.4703 15.1707 13.2973C15.0833 13.1242 15.0666 12.924 15.1242 12.7389L15.1495 12.644L15.0609 12.6029C14.8986 12.5081 14.768 12.3674 14.6858 12.1984C14.6035 12.0294 14.5733 11.8398 14.5989 11.6536C14.5137 11.7398 14.4575 11.8505 14.4382 11.9702C14.4189 12.0899 14.4375 12.2126 14.4913 12.3213C14.428 12.394 14.3458 12.4795 14.254 12.5744C14.0926 12.5405 13.9473 12.4535 13.8412 12.3274C13.735 12.2012 13.6743 12.043 13.6686 11.8783V11.7991L13.5958 11.7707C13.5011 11.7425 13.413 11.6954 13.3369 11.6323C13.2607 11.5693 13.1981 11.4915 13.1528 11.4036C13.0918 11.2573 13.0807 11.0949 13.1212 10.9416C13.1837 10.9556 13.2472 10.9651 13.311 10.9701C13.3753 10.9734 13.4398 10.9734 13.5041 10.9701C13.7573 10.9693 14.0076 10.9154 14.2387 10.8119C14.4698 10.7083 14.6766 10.5574 14.8457 10.3689L17.529 10.3815ZM15.4786 8.22351L15.9975 8.53994L16.1272 8.61588C15.8581 8.68928 15.6141 8.8348 15.4216 9.03673L15.3995 9.05572C15.3552 9.10318 15.314 9.15065 15.2729 9.20127L15.2476 9.23292C15.2075 9.28354 15.1695 9.33734 15.1337 9.39429L15.1147 9.42277C15.0704 9.48606 15.0292 9.55567 14.9881 9.62529C14.8467 9.90644 14.6365 10.1473 14.377 10.3254C14.1175 10.5036 13.8173 10.6132 13.5041 10.6442C13.1909 10.6132 12.8906 10.5036 12.6311 10.3254C12.3717 10.1473 12.1614 9.90644 12.02 9.62529C11.9789 9.55567 11.9377 9.48922 11.8966 9.42277L11.8713 9.38797L11.77 9.22342L11.7416 9.18862C11.7004 9.13799 11.6593 9.09052 11.6182 9.04622L11.596 9.02407C11.4035 8.82214 11.1595 8.67662 10.8904 8.60323L11.0233 8.52728L11.5454 8.21086L12.0801 7.89443L13.5072 8.66967L14.9343 7.91974L15.4786 8.22351ZM14.7761 7.59066L13.6401 8.1887V5.75538L15.1811 5.23327L14.7761 7.59066ZM13.5104 5.49907L11.8207 4.82191C11.9631 4.48017 12.6276 4.18906 13.5104 4.18906C14.3932 4.18906 15.0577 4.48017 15.2001 4.82191L13.5104 5.49907Z" fill="#222220"/>
</g>
<defs>
<clipPath id="clip0">
<rect width="94.6087" height="22.8872" fill="white" transform="translate(0.695312 0.929932)"/>
</clipPath>
</defs>
</svg>
