<svg width="93" height="24" viewBox="0 0 93 24" fill="none" xmlns="http://www.w3.org/2000/svg">
<path d="M24.5306 11.8473C24.5306 18.3787 19.2359 23.6734 12.7045 23.6734C6.17314 23.6734 0.878418 18.3787 0.878418 11.8473C0.878418 5.31596 6.17314 0.0212402 12.7045 0.0212402C19.2359 0.0212402 24.5306 5.31596 24.5306 11.8473Z" fill="#99C747"/>
<path d="M20.2314 11.7495C20.2314 15.8518 16.9058 19.1774 12.8034 19.1774C8.7011 19.1774 5.37549 15.8518 5.37549 11.7495C5.37549 7.64714 8.7011 4.32153 12.8034 4.32153C16.9058 4.32153 20.2314 7.64714 20.2314 11.7495Z" fill="#EB3D2E"/>
<path d="M17.4937 8.81755C17.4937 10.3289 16.2685 11.5542 14.7571 11.5542C13.2457 11.5542 12.0205 10.3289 12.0205 8.81755C12.0205 7.30616 13.2457 6.08093 14.7571 6.08093C16.2685 6.08093 17.4937 7.30616 17.4937 8.81755Z" fill="#B52A43"/>
<path d="M39.6559 7.88564V8.86721H35.7178V10.7949H37.4917C38.3432 10.7949 39.0291 10.9801 39.5495 11.3507C40.0698 11.7134 40.33 12.3086 40.33 13.1364C40.33 13.9721 40.0659 14.5871 39.5377 14.9813C39.0094 15.3755 38.3274 15.5726 37.4917 15.5726H34.5825V7.88564H39.6559ZM37.137 11.7409H35.7178V14.6265H37.137C37.8229 14.6265 38.3353 14.524 38.6743 14.319C39.0212 14.114 39.1947 13.7198 39.1947 13.1364C39.1947 12.8368 39.1474 12.5924 39.0528 12.4032C38.9582 12.2061 38.8084 12.0642 38.6034 11.9775C38.4063 11.8829 38.1974 11.8198 37.9766 11.7883C37.7559 11.7567 37.476 11.7409 37.137 11.7409Z" fill="#404B59"/>
<path d="M42.8204 12.8408V15.5726H41.6851V7.88564H44.2632C46.2184 7.88564 47.1961 8.6977 47.1961 10.3218C47.1961 11.1733 46.9319 11.808 46.4037 12.2258C45.8755 12.6358 45.162 12.8408 44.2632 12.8408H42.8204ZM42.8204 11.9065H44.003C44.6968 11.9065 45.2132 11.7922 45.5522 11.5636C45.8912 11.327 46.0608 10.9131 46.0608 10.3218C46.0608 9.74628 45.8912 9.35602 45.5522 9.15103C45.2132 8.94605 44.6968 8.84356 44.003 8.84356H42.8204V11.9065Z" fill="#404B59"/>
<path d="M54.6235 7.88564L51.9744 13.8578C51.6512 14.5831 51.3437 15.0798 51.052 15.3479C50.7603 15.616 50.4173 15.75 50.0231 15.75C49.826 15.75 49.6171 15.7106 49.3964 15.6317C49.1835 15.5529 49.0179 15.4583 48.8997 15.3479L49.2899 14.4491C49.4791 14.6147 49.692 14.6975 49.9285 14.6975C50.1335 14.6975 50.303 14.6186 50.4371 14.4609C50.579 14.3033 50.7169 14.0667 50.851 13.7514L50.9811 13.4794L48.0837 7.88564H49.3136L51.5487 12.3086L53.4645 7.88564H54.6235Z" fill="#404B59"/>
<path d="M56.0722 11.7291C56.0722 12.7067 56.3126 13.4557 56.7936 13.9761C57.2745 14.4964 57.8895 14.7566 58.6384 14.7566C59.5845 14.7566 60.3099 14.3585 60.8144 13.5622L61.6659 14.1653C61.0194 15.2218 60.0063 15.75 58.6266 15.75C57.5071 15.75 56.6083 15.3952 55.9303 14.6856C55.2522 13.9761 54.9132 13.0063 54.9132 11.7764C54.9132 10.5386 55.2522 9.55312 55.9303 8.8199C56.6083 8.0788 57.5031 7.70825 58.6148 7.70825C59.9472 7.70825 60.9445 8.22072 61.6068 9.24564L60.7553 9.88425C60.2586 9.10373 59.5451 8.71347 58.6148 8.71347C57.8737 8.71347 57.2627 8.97758 56.7817 9.50582C56.3087 10.0262 56.0722 10.7673 56.0722 11.7291Z" fill="#404B59"/>
<path d="M64.1628 12.1194V15.5726H63.0275V7.88564H64.1628V11.1969H68.1009V7.88564H69.2244V15.5726H68.1009V12.1194H64.1628Z" fill="#404B59"/>
<path d="M76.0014 9.50582L72.0988 15.5726H70.8807V7.88564H72.0161V13.9524L75.9187 7.88564H77.1367V15.5726H76.0014V9.50582Z" fill="#404B59"/>
<path d="M79.9271 7.88564V11.1851H80.3764C80.6287 11.1851 80.8534 11.1339 81.0505 11.0314C81.2555 10.921 81.4329 10.7673 81.5827 10.5702C81.7325 10.3652 81.8547 10.172 81.9493 9.99069C82.0439 9.80935 82.1425 9.5886 82.245 9.32843C82.5051 8.68193 82.8205 8.24437 83.1911 8.01573C83.5616 7.78709 84.0228 7.72008 84.5747 7.81469V8.87903C84.3461 8.8475 84.1529 8.8475 83.9952 8.87903C83.8376 8.91057 83.6996 8.98547 83.5813 9.10373C83.4631 9.21411 83.3685 9.33237 83.2975 9.45851C83.2265 9.57677 83.1438 9.74628 83.0491 9.96703C82.8836 10.3455 82.7062 10.6569 82.517 10.9013C82.3356 11.1378 82.1819 11.2955 82.0558 11.3743C81.9296 11.4453 81.7877 11.5044 81.63 11.5517V11.6345C82.2844 11.7922 82.8245 12.352 83.2502 13.3138C83.4867 13.8499 83.7075 14.2165 83.9124 14.4136C84.1174 14.6107 84.4328 14.6659 84.8585 14.5792V15.6317C84.827 15.6475 84.76 15.6593 84.6575 15.6672C84.555 15.683 84.4604 15.6909 84.3737 15.6909H84.2436C83.7784 15.6909 83.4118 15.5489 83.1438 15.2651C82.8836 14.9813 82.6431 14.5871 82.4224 14.0825C82.0755 13.2705 81.764 12.7422 81.4881 12.4978C81.22 12.2534 80.8416 12.1312 80.3528 12.1312H79.9271V15.5726H78.7918V7.88564H79.9271Z" fill="#404B59"/>
<path d="M91.6222 15.5726L90.9718 13.7987H87.4831L86.8327 15.5726H85.6855L88.6184 7.88564H89.8247L92.7694 15.5726H91.6222ZM89.2215 8.94999L87.8024 12.9117H90.6525L89.2215 8.94999Z" fill="#404B59"/>
</svg>
