<svg width="70" height="21" viewBox="0 0 70 21" fill="none" xmlns="http://www.w3.org/2000/svg">
<g clip-path="url(#clip0)">
<path d="M8.03991 15.9847H5.86626L1.58227 11.3419H1.54006V15.9847H-0.000488281V6.29822H1.54006V10.7299H1.58227L5.65522 6.29822H7.68115L3.18613 10.9621L8.03991 15.9847Z" fill="#010101"/>
<path d="M39.8637 15.9847H38.3021V11.5741H33.3639V15.9636H31.8022V6.29822H33.3639V10.2657H38.3021V6.29822H39.8637V15.9847Z" fill="#010101"/>
<path d="M49.0648 7.60663H46.1525V15.9636H44.612V7.60663H41.6997V6.29822H49.0648V7.60663V7.60663Z" fill="#010101"/>
<path d="M59.4268 6.29822L54.974 17.5252C54.1721 19.5301 53.0536 20.543 51.6186 20.543C51.2176 20.543 50.88 20.5008 50.6056 20.4164V19.108C50.9433 19.2135 51.2387 19.1924 51.5131 19.1924C52.2939 19.1924 52.8848 18.7281 53.2646 17.7996L54.0455 15.9636L50.2891 6.29822H51.9984L54.6153 13.7477C54.6575 13.8321 54.7208 14.0854 54.8263 14.4863H54.8896C54.9318 14.3386 54.9951 14.1065 55.0795 13.7688L57.823 6.29822H59.4268Z" fill="#010101"/>
<path d="M62.6765 14.5708H62.6343V20.4165H61.0938V6.2983H62.6343V7.98657H62.6765C63.4362 6.69926 64.5547 6.06616 66.0319 6.06616C67.277 6.06616 68.2478 6.48823 68.9653 7.37457C69.6617 8.23981 69.9994 9.4005 69.9994 10.8566C69.9994 12.4816 69.6195 13.7689 68.8176 14.7608C68.0368 15.7315 66.9605 16.2169 65.5888 16.2169C64.3437 16.1958 63.3729 15.6682 62.6765 14.5708ZM62.6554 10.6667V12.0173C62.6554 12.8193 62.9086 13.4946 63.4362 14.0644C63.9638 14.613 64.618 14.9085 65.4199 14.9085C66.3696 14.9085 67.0871 14.5497 67.6358 13.8322C68.1634 13.1147 68.4377 12.1017 68.4377 10.8355C68.4377 9.75926 68.1845 8.91512 67.6991 8.30312C67.1926 7.69112 66.5173 7.39568 65.6732 7.39568C64.7657 7.39568 64.0482 7.71223 63.4995 8.34533C62.9297 8.93623 62.6554 9.73816 62.6554 10.6667Z" fill="#010101"/>
<path d="M18.5071 2.98501C20.1953 2.98501 21.7148 3.74473 22.7278 5.05314L23.1709 5.60183L23.8462 5.66514C26.3998 5.83397 28.4046 7.96541 28.4046 10.54C28.4046 13.2202 26.2098 15.4149 23.5297 15.4149H14.1176C11.7962 15.436 9.91799 13.5367 9.91799 11.2364C9.91799 9.50596 11.0154 7.9232 12.6403 7.3112L13.2945 7.05796L13.5478 6.40376C14.3286 4.35673 16.3123 2.98501 18.5071 2.98501ZM18.5071 1.44446C15.5737 1.44446 13.0835 3.28045 12.0916 5.87617C9.91799 6.6781 8.37744 8.78844 8.37744 11.2364C8.37744 14.4019 10.9521 16.9766 14.1176 16.9766H23.5508C27.0962 16.9766 29.9873 14.1065 29.9873 10.5611C29.9873 7.16348 27.3283 4.35673 23.9729 4.14569C22.6855 2.45742 20.7018 1.44446 18.5071 1.44446Z" fill="#D70C17"/>
</g>
<defs>
<clipPath id="clip0">
<rect width="70" height="20" fill="white" transform="translate(0 0.444458)"/>
</clipPath>
</defs>
</svg>
