<svg width="46" height="22" viewBox="0 0 46 22" fill="none" xmlns="http://www.w3.org/2000/svg">
<g clip-path="url(#clip0)">
<path fill-rule="evenodd" clip-rule="evenodd" d="M7.01255 1.18734L7.0105 0H4.4814L3.14987 10.4171L2.54444 10.4212L2.55978 0H0V22H2.52705L2.54239 11.8969L3.07214 11.9L4.30039 22H6.82949L6.83153 20.7953L5.60533 11.2158L7.01255 1.18734ZM10.4341 11.1708H10.7338L12.2197 0H14.4502V22H11.9324L11.9211 11.1708H11.6256L10.1386 22H7.90708L7.90606 0H10.4341V11.1708ZM33.7734 11.1708H34.0731L35.5601 0H37.7895V22H35.2717L35.2604 11.1708H34.9649L33.4779 22H31.2464V0H33.7734V11.1708ZM42.9877 0L43.001 17.5544H41.8055V0H39.2712L39.2774 17.538C39.2782 17.932 39.4354 18.3096 39.7143 18.5879C39.9933 18.8661 40.3714 19.0222 40.7654 19.0219H43.003V21.9969H45.5198V0H42.9877ZM21.7392 0.437149C22.0182 0.716529 22.1749 1.09522 22.1749 1.49005L22.18 14.2757H22.1657V17.5483C22.1657 17.7436 22.1272 17.937 22.0524 18.1174C21.9776 18.2978 21.868 18.4617 21.7298 18.5997C21.5916 18.7377 21.4275 18.8471 21.247 18.9217C21.0665 18.9962 20.873 19.0345 20.6777 19.0342H18.4278L18.4217 22H15.9049L15.9294 0H20.6869C21.0818 0.00054198 21.4602 0.157768 21.7392 0.437149ZM18.4309 17.5605H19.6356V4.7606H19.6469V1.47471H18.4616L18.4309 17.5605ZM25.3249 0H26.1809H27.3283H29.7633L29.7204 22H27.2036L27.2271 1.49619H26.1778L26.1379 22H23.6201L23.6456 0H25.2963H25.3249Z" fill="white"/>
</g>
<defs>
<clipPath id="clip0">
<rect width="45.5217" height="22" fill="white"/>
</clipPath>
</defs>
</svg>
