<svg width="24" height="24" viewBox="0 0 24 24" fill="none" xmlns="http://www.w3.org/2000/svg">
<path d="M2.25 2.78852V21.2104C2.25012 21.2504 2.26204 21.2894 2.28427 21.3226C2.30649 21.3558 2.33803 21.3818 2.37492 21.3971C2.41182 21.4125 2.45243 21.4166 2.49166 21.409C2.5309 21.4014 2.56701 21.3824 2.59547 21.3543L12.1875 11.9999L2.59547 2.64462C2.56701 2.61656 2.5309 2.59752 2.49166 2.5899C2.45243 2.58228 2.41182 2.58642 2.37492 2.60179C2.33803 2.61716 2.30649 2.64308 2.28427 2.6763C2.26204 2.70951 2.25012 2.74856 2.25 2.78852Z" fill="white"/>
<path d="M16.2093 8.15627L4.18216 1.53002L4.17466 1.5258C3.96747 1.4133 3.7706 1.69361 3.94028 1.85674L13.3683 10.8717L16.2093 8.15627Z" fill="white"/>
<path d="M3.94132 22.1433C3.7707 22.3064 3.96757 22.5867 4.1757 22.4742L4.1832 22.47L16.2094 15.8437L13.3684 13.1273L3.94132 22.1433Z" fill="white"/>
<path d="M21.0649 10.8281L17.7063 8.97839L14.5483 12L17.7063 15.0201L21.0649 13.1718C21.9785 12.667 21.9785 11.3329 21.0649 10.8281Z" fill="white"/>
</svg>
