<svg width="288" height="138" viewBox="0 0 288 138" fill="none" xmlns="http://www.w3.org/2000/svg">
<path d="M157.36 28.6141H207.871V32.2683H157.36V54.2395H207.871V57.8994H157.36V80.209H207.871V83.7256H157.36V105.691H207.871V109.311H157.36V131.626H217.595V96.5239H167.113V92.8697H217.595V45.0609H167.113V41.4182H217.595V6.47083H157.36V28.6141ZM207.871 122.505H167.078V118.489H207.871V122.505ZM167.078 70.9157V67.0837H207.871V70.9157H167.078ZM167.078 15.6379H207.871V19.47H167.078V15.6379Z" fill="#9AB9C9"/>
<path d="M221.908 6.31006V131.81H282.142V6.31006H221.908ZM241.636 120.927H233.605V112.942H241.636V120.927ZM241.636 107.24H233.605V99.2544H241.636V107.24ZM241.636 93.5522H233.605V85.5611H241.636V93.5522ZM241.636 79.8589H233.605V71.8736H241.636V79.8589ZM241.636 66.1714H233.605V58.1861H241.636V66.1714ZM241.636 52.4839H233.605V44.4871H241.636V52.4839ZM241.636 38.7964H233.605V30.8053H241.636V38.7964ZM241.636 25.1031H233.605V17.1178H241.636V25.1031ZM256.052 120.904H248.021V112.942H256.052V120.904ZM256.052 107.217H248.021V99.2544H256.052V107.217ZM256.052 93.5293H248.021V85.5611H256.052V93.5293ZM256.052 79.836H248.021V71.8736H256.052V79.836ZM256.052 66.1485H248.021V58.1861H256.052V66.1485ZM256.052 52.461H248.021V44.4871H256.052V52.461ZM256.052 38.7734H248.021V30.8053H256.052V38.7734ZM256.052 25.0802H248.021V17.1178H256.052V25.0802ZM270.468 120.835H262.437V112.873H270.468V120.835ZM270.468 107.148H262.437V99.1855H270.468V107.148ZM270.468 93.4604H262.437V85.4923H270.468V93.4604ZM270.468 79.7729H262.437V71.8048H270.468V79.7729ZM270.468 66.0796H262.437V58.1172H270.468V66.0796ZM270.468 52.3921H262.437V44.4297H270.468V52.3921ZM270.468 38.7046H262.437V30.7193H270.468V38.7046ZM270.468 25.0171H262.437V17.049H270.468V25.0171Z" fill="#9AB9C9"/>
<path d="M5.79932 6.33301V131.505H65.8844V6.33301H5.79932ZM56.1322 121.197H15.5515V114.284H56.1322V121.197ZM56.1322 107.245H15.5515V100.362H56.1322V107.245ZM56.1322 93.2998H15.5515V86.3642H56.1322V93.2998ZM56.1322 79.3484H15.5515V72.4645H56.1322V79.3484ZM56.1322 65.4027H15.5515V58.5188H56.1322V65.4027ZM56.1322 51.4513H15.5515V44.5674H56.1322V51.4513ZM56.1322 37.5057H15.5515V30.6217H56.1322V37.5057ZM56.1322 23.5543H15.5515V16.6704H56.1322V23.5543Z" fill="#9AB9C9"/>
<path fill-rule="evenodd" clip-rule="evenodd" d="M70.4005 13.3717L118.703 13.3315V16.6243H70.412V23.6115H118.657C119.198 23.613 119.733 23.5075 120.233 23.3009C120.733 23.0943 121.187 22.7907 121.569 22.4078C121.95 22.0249 122.253 21.5701 122.458 21.0698C122.663 20.5694 122.767 20.0334 122.764 19.4926V13.3315H130.962V6.39026H70.412L70.4005 13.3717ZM101.113 38.7503V37.9242L70.4108 33.8341L70.3994 27.6902H130.943L130.949 34.6257L101.113 34.6544V35.469L130.943 39.5649V45.7145H70.4108V38.7503H101.113ZM101.113 103.04V102.22L70.4108 98.1241L70.3994 91.9802H130.943L130.949 98.9157L101.113 98.9502V99.759L130.943 103.855V110.005H70.4108V103.04H101.113ZM71.5523 71.9029C72.3205 71.1348 73.3623 70.7033 74.4486 70.7033H109.666V70.7434H118.672C119.759 70.7449 120.801 71.1778 121.569 71.9468C122.337 72.7159 122.768 73.7583 122.768 74.8451V81.0406H130.937V87.9762L70.3527 87.9073V84.9989V80.9201V74.7992C70.3527 73.7129 70.7842 72.6711 71.5523 71.9029ZM118.747 81.0177V77.6962L83.4837 77.6675H74.4371V80.9316L118.747 81.0177ZM73.618 112.466L70.3481 112.471V119.441L99.0426 123.113L99.0541 124.776L70.3481 124.73L70.3596 131.718L130.95 131.786L130.938 124.822L103.116 124.782L103.127 123.319L130.898 119.94V112.97L127.628 112.965L101.24 116.372V116.344L73.618 112.466ZM70.3641 59.6659H70.3699V56.5051L70.3527 49.799L130.931 49.9137L130.937 56.8493L74.4658 56.7862V59.6774L130.937 59.7864L130.948 66.7219L70.3813 66.6531L70.3699 62.104V62.0237L70.3641 59.6659Z" fill="#9AB9C9"/>
<path d="M148.589 110.114L152.897 6.52234H135.464L139.778 110.2L148.589 110.114Z" fill="#FFD140"/>
<path d="M150.505 116.562H137.861V131.677H150.505V116.562Z" fill="#FFD140"/>
<path opacity="0.4" fill-rule="evenodd" clip-rule="evenodd" d="M-0.00341797 0.885864H287.997V137.227H-0.00341797V0.885864ZM2.56084 3.45012V134.663H285.432V3.45012H2.56084Z" fill="#9AB9C9"/>
</svg>
