<svg width="16" height="10" viewBox="0 0 16 10" fill="none" xmlns="http://www.w3.org/2000/svg">
<path fill-rule="evenodd" clip-rule="evenodd" d="M15.6316 0.923902C15.7442 0.548744 15.6316 0.286133 15.1064 0.286133H13.3556C12.9055 0.286133 12.7054 0.523733 12.5928 0.786344C12.5928 0.786344 11.705 2.96226 10.4419 4.36286C10.0292 4.77553 9.85417 4.90059 9.62907 4.90059C9.51653 4.90059 9.35396 4.77553 9.35396 4.40037V0.923902C9.35396 0.473712 9.2289 0.286133 8.85375 0.286133H6.10258C5.82747 0.286133 5.65239 0.498722 5.65239 0.686302C5.65239 1.11148 6.27766 1.21152 6.35269 2.38702V4.96311C6.35269 5.52585 6.25265 5.62589 6.02755 5.62589C5.4398 5.62589 3.98919 3.44997 3.13883 0.948914C2.96375 0.486218 2.80118 0.286133 2.35099 0.286133H0.600254C0.100042 0.286133 0 0.523733 0 0.786344C0 1.24904 0.587748 3.55001 2.76367 6.5888C4.21428 8.66468 6.25265 9.79015 8.10343 9.79015C9.2164 9.79015 9.35396 9.54005 9.35396 9.11487V7.5392C9.35396 7.03899 9.454 6.93895 9.81665 6.93895C10.0793 6.93895 10.5169 7.064 11.5549 8.06442C12.7429 9.25243 12.943 9.79015 13.6058 9.79015H15.3565C15.8567 9.79015 16.1068 9.54005 15.9568 9.05234C15.7942 8.56464 15.2314 7.85183 14.4811 7.00147C14.0685 6.51377 13.4557 6.00105 13.2806 5.73844C13.018 5.4008 13.093 5.25073 13.2806 4.96311C13.2806 4.95061 15.419 1.94934 15.6316 0.923902Z" fill="white"/>
</svg>
